<svg data-js-target-list="HomepageFrontdoorPaymentsAnimation.screens" width="100%" viewBox="0 0 303 617" fill="none" xmlns="http://www.w3.org/2000/svg">
    <path d="M109.612 277.956C109.672 283.644 110.728 288.972 113.116 288.972C114.028 288.972 114.376 288.384 114.532 286.308C114.28 286.224 113.944 286.008 113.74 285.804C113.668 287.4 113.536 288.036 113.188 288.036C111.724 288.036 110.548 283.44 110.572 277.956H109.612ZM111.292 278.52C112.036 278.868 112.912 279.432 113.344 279.84L113.896 279.204C113.452 278.808 112.564 278.28 111.82 277.968L111.292 278.52ZM112.864 281.592C111.916 284.616 110.188 286.92 107.692 288.264C107.884 288.432 108.244 288.792 108.376 288.972C110.896 287.46 112.708 285.048 113.752 281.808L112.864 281.592ZM103.804 279.84V280.728H114.232V279.84H103.804ZM103.744 287.22L103.912 288.144C105.316 287.844 107.284 287.412 109.12 287.004L109.048 286.14C107.092 286.56 105.052 286.968 103.744 287.22ZM105.328 282.576H107.776V284.676H105.328V282.576ZM104.5 281.796V285.444H108.664V281.796H104.5ZM117.34 278.772V279.636H125.104V278.772H117.34ZM117.34 281.568V282.42H125.092V281.568H117.34ZM117.28 284.436V285.288H125.116V284.436H117.28ZM116.836 278.772V283.116C116.836 284.808 116.704 286.944 115.384 288.432C115.576 288.552 115.936 288.852 116.08 289.032C117.508 287.436 117.724 284.952 117.724 283.128V278.772H116.836ZM124.744 278.772V287.736C124.744 287.964 124.66 288.036 124.432 288.048C124.204 288.048 123.388 288.06 122.536 288.024C122.668 288.264 122.812 288.66 122.848 288.9C123.988 288.912 124.684 288.9 125.092 288.756C125.488 288.6 125.632 288.324 125.632 287.736V278.772H124.744ZM120.604 279.096V288.852H121.516V279.096H120.604ZM127.852 284.04V284.856H136.96V284.04H127.852ZM136.648 284.04V284.172C136.48 286.716 136.324 287.724 136.036 287.988C135.904 288.096 135.784 288.108 135.532 288.108C135.256 288.108 134.5 288.096 133.732 288.036C133.9 288.276 134.008 288.648 134.044 288.924C134.788 288.96 135.532 288.972 135.892 288.948C136.312 288.912 136.588 288.84 136.828 288.576C137.2 288.18 137.392 287.124 137.56 284.448C137.584 284.316 137.596 284.04 137.596 284.04H136.648ZM132.328 282.768C132.064 285.288 131.5 287.292 127.588 288.18C127.78 288.372 128.02 288.732 128.104 288.972C132.244 287.94 132.976 285.672 133.288 282.768H132.328ZM129.832 279.348H136.168V281.964H129.832V279.348ZM128.944 278.484V282.816H137.104V278.484H128.944ZM139.528 282.828V283.812H150.508V282.828H139.528ZM151.624 279.996V280.86H162.364V279.996H151.624ZM155.548 282.84V283.704H160.348V282.84H155.548ZM160.024 282.84L160.012 282.996C159.808 286.284 159.568 287.628 159.184 287.976C159.052 288.096 158.884 288.108 158.62 288.108C158.308 288.108 157.456 288.108 156.592 288.024C156.76 288.276 156.892 288.648 156.904 288.912C157.72 288.948 158.512 288.972 158.932 288.948C159.388 288.912 159.688 288.828 159.964 288.54C160.432 288.06 160.672 286.728 160.912 283.272C160.936 283.14 160.948 282.84 160.948 282.84H160.024ZM155.344 280.476C155.212 283.344 155.008 286.692 151.504 288.276C151.732 288.456 152.02 288.78 152.152 289.008C155.812 287.256 156.16 283.656 156.34 280.476H155.344ZM156.484 277.896V280.368H157.408V277.896H156.484ZM171.508 278.52C172.132 278.952 172.864 279.6 173.224 280.032L173.86 279.468C173.488 279.048 172.732 278.424 172.108 278.004L171.508 278.52ZM163.66 280.164V281.04H174.352V280.164H163.66ZM164.068 282.84V283.716H169.372V282.84H164.068ZM166.228 283.308V287.592H167.128V283.308H166.228ZM163.708 287.712L163.984 288.612C165.532 288.264 167.728 287.76 169.78 287.28L169.708 286.476C167.488 286.956 165.136 287.436 163.708 287.712ZM169.768 277.98C169.816 283.788 170.788 288.984 173.176 288.984C174.1 288.984 174.448 288.372 174.604 286.272C174.352 286.188 174.004 285.984 173.8 285.78C173.728 287.388 173.584 288.048 173.248 288.048C171.772 288.048 170.692 283.548 170.728 277.98H169.768ZM178.48 283.344L177.652 283.644C179.152 286.656 181.948 288.384 185.956 288.996C186.088 288.744 186.328 288.348 186.532 288.144C182.596 287.616 179.788 286.008 178.48 283.344ZM176.464 282.504V283.38H184.288V282.504H176.464ZM175.912 279.756V280.656H186.04V279.756H175.912ZM180.508 277.932V282.912H181.432V277.932H180.508ZM184 282.504V282.684C182.752 285.972 179.368 287.496 175.468 288.108C175.636 288.312 175.876 288.732 175.96 288.96C179.944 288.24 183.508 286.536 184.996 282.84L184.384 282.468L184.204 282.504H184ZM191.128 280.596V281.508H198.448V280.596H191.128ZM196.012 278.064V287.736C196.012 288.012 195.904 288.084 195.616 288.108C195.34 288.12 194.344 288.12 193.324 288.084C193.468 288.336 193.636 288.744 193.684 288.984C194.992 288.996 195.808 288.984 196.276 288.828C196.732 288.696 196.924 288.42 196.924 287.736V278.064H196.012ZM191.884 283.14C192.496 284.1 193.276 285.396 193.636 286.14L194.476 285.684C194.092 284.952 193.288 283.704 192.664 282.768L191.884 283.14ZM189.22 281.196V288.936H190.132V280.308L190.12 280.284L189.22 281.196ZM190.528 278.004C189.832 279.876 188.68 281.712 187.444 282.888C187.612 283.104 187.9 283.56 188.008 283.776C189.34 282.42 190.6 280.356 191.404 278.268L190.528 278.004Z" fill="#727F96"></path>
    <line opacity="0.2" x1="28" y1="284.339" x2="92" y2="284.339" stroke="#0A2540" stroke-width="1.32191"></line>
    <line opacity="0.2" x1="211" y1="284.339" x2="275" y2="284.339" stroke="#0A2540" stroke-width="1.32191"></line>
    <g clip-path="url(#Sticky-clip0_3869_234348)">
    <path d="M41.609 515.102L39.948 521.427L38.265 515.102H37.176L39.354 523H40.388L42.06 516.851L43.743 523H44.777L46.944 515.102H45.899L44.216 521.427L42.544 515.102H41.609ZM49.7812 523.121C50.9252 523.121 51.7942 522.494 52.1462 521.471L51.2772 521.163C51.1012 521.845 50.5512 522.263 49.7812 522.263C48.7802 522.263 48.0872 521.493 48.0322 520.283H52.1902V519.953C52.1902 518.358 51.3432 517.137 49.7372 517.137C48.1752 517.137 47.0862 518.413 47.0862 520.129C47.0862 521.9 48.1862 523.121 49.7812 523.121ZM49.7262 517.984C50.7272 517.984 51.1672 518.71 51.1892 519.524H48.0872C48.2632 518.545 48.8902 517.984 49.7262 517.984ZM53.3787 516.246H54.4567V515.102H53.3787V516.246ZM54.4127 517.247H53.4227V523H54.4127V517.247ZM57.9675 519.051C57.9675 521.46 59.4855 523.121 61.5535 523.121C61.9495 523.121 62.3345 523.055 62.6865 522.945C63.0055 523.517 63.7425 524.056 64.4465 524.254L65.0625 523.495C64.4465 523.341 63.8415 522.978 63.5225 522.516C64.5125 521.834 65.1285 520.591 65.1285 519.051C65.1285 516.642 63.6215 514.981 61.5535 514.981C59.4855 514.981 57.9675 516.642 57.9675 519.051ZM64.0835 519.051C64.0835 520.921 63.0385 522.186 61.5535 522.186C60.0685 522.186 59.0235 520.921 59.0235 519.051C59.0235 517.181 60.0685 515.916 61.5535 515.916C63.0385 515.916 64.0835 517.181 64.0835 519.051ZM66.323 516.246H67.401V515.102H66.323V516.246ZM67.357 517.247H66.367V523H67.357V517.247ZM69.0096 523H69.9996V519.568C69.9996 518.611 70.7256 518.061 71.4406 518.061C72.2986 518.061 72.6396 518.666 72.6396 519.469V523H73.6296V519.205C73.6296 517.984 72.9366 517.137 71.7156 517.137C70.9016 517.137 70.3296 517.555 69.9996 518.028V517.247H69.0096V523ZM80.0916 522.483V517.247H79.1016V518.094C78.7936 517.533 78.1336 517.137 77.3416 517.137C75.7686 517.137 74.8446 518.435 74.8446 519.997C74.8446 521.57 75.7686 522.868 77.3416 522.868C78.1446 522.868 78.7936 522.472 79.1016 521.911V522.56C79.1016 523.759 78.4306 524.276 77.4186 524.276C76.6156 524.276 76.0216 523.847 75.8346 523.11L74.9106 523.462C75.2296 524.518 76.1536 525.101 77.4186 525.101C78.9806 525.101 80.0916 524.166 80.0916 522.483ZM79.1126 519.909V520.118C79.1126 521.383 78.3426 521.999 77.5176 521.999C76.4726 521.999 75.8346 521.207 75.8346 519.997C75.8346 518.787 76.4726 518.006 77.5176 518.006C78.3426 518.006 79.1126 518.622 79.1126 519.909Z" fill="#2E3A55"></path>
    <rect x="28.4888" y="505.489" width="247.022" height="27.0224" rx="7.51119" stroke="#E7ECF1" stroke-width="0.977623"></rect>
    <path d="M28.572 490.819V491.633H38.439V490.819H28.572ZM33.346 488.344V489.147H37.251V488.344H33.346ZM32.851 486.76V491.204H33.709V486.76H32.851ZM32.851 491.369V496.88H33.709V491.369H32.851ZM33.467 493.206C34.71 493.558 36.371 494.163 37.218 494.581L37.647 493.844C36.756 493.415 35.084 492.865 33.874 492.546L33.467 493.206ZM44.39 490.324V491.149H48.911V490.324H44.39ZM39.781 495.538V496.363H49.659V495.538H39.781ZM43.917 486.925V495.978H44.786V486.925H43.917ZM51.881 488.531V489.268H54.455V494.977H51.881V495.725H55.225V488.531H51.881ZM51.386 488.531V496.605H52.156V488.531H51.386ZM51.826 491.589V492.326H54.862V491.589H51.826ZM53.069 486.738C52.981 487.31 52.772 488.146 52.585 488.674L53.245 488.839C53.465 488.344 53.74 487.585 53.96 486.903L53.069 486.738ZM56.787 488.498V489.268H60.164V488.498H56.787ZM59.878 488.498V488.674C59.724 493.525 59.548 495.351 59.185 495.747C59.064 495.89 58.932 495.923 58.712 495.923C58.459 495.923 57.799 495.912 57.084 495.857C57.238 496.077 57.337 496.418 57.359 496.66C57.975 496.693 58.624 496.715 58.998 496.671C59.383 496.638 59.636 496.539 59.878 496.22C60.318 495.681 60.472 493.976 60.648 488.927C60.648 488.806 60.648 488.498 60.648 488.498H59.878ZM57.018 486.716C56.666 488.245 56.061 489.763 55.313 490.731C55.511 490.841 55.852 491.072 55.995 491.204C56.754 490.159 57.403 488.542 57.81 486.903L57.018 486.716ZM56.512 491.358C57.117 492.161 57.854 493.25 58.184 493.921L58.888 493.481C58.536 492.832 57.777 491.765 57.15 490.984L56.512 491.358ZM67.171 487.343C66.918 488.817 66.467 490.258 65.774 491.182C65.972 491.292 66.335 491.512 66.489 491.633C67.171 490.621 67.688 489.081 67.974 487.475L67.171 487.343ZM68.821 486.859V496.341H69.646V486.859H68.821ZM66.687 492.337V493.107H71.813V492.337H66.687ZM65.928 495.846V496.627H72.22V495.846H65.928ZM67.16 489.158L66.852 489.939H71.934V489.158H67.16ZM62.1 489.037V489.807H65.477V489.037H62.1ZM63.607 486.771C63.266 488.85 62.672 491.776 62.232 493.437L62.914 493.811C63.376 491.985 64.003 489.037 64.399 486.848L63.607 486.771ZM62.584 493.019C63.717 493.822 65.048 495.021 65.653 495.857L66.181 495.175C65.565 494.372 64.201 493.228 63.068 492.436L62.584 493.019ZM65.191 489.037V489.202C64.971 492.953 63.926 495.263 62.188 496.22C62.364 496.396 62.573 496.693 62.694 496.891C64.63 495.692 65.697 493.371 65.95 489.081L65.477 489.015L65.334 489.037H65.191ZM76.884 495.681V496.44H82.197V495.681H76.884ZM76.51 487.871V488.608H80.547V487.871H76.51ZM77.005 486.727C76.367 487.926 75.102 489.345 73.287 490.335C73.474 490.478 73.749 490.764 73.87 490.973C75.784 489.84 77.104 488.344 77.929 486.914L77.005 486.727ZM80.272 487.871V488.014C79.128 490.907 76.081 493.063 73.232 493.888C73.408 494.064 73.617 494.405 73.716 494.625C76.708 493.657 79.81 491.446 81.13 488.124L80.58 487.827L80.426 487.871H80.272ZM75.135 489.829C76.004 490.445 77.049 491.369 77.511 491.996L78.182 491.402C77.676 490.775 76.62 489.895 75.751 489.301L75.135 489.829ZM81.79 492.205V496.902H82.637V492.205H81.79ZM77.258 492.205H77.093L76.433 492.854V496.88H77.258V492.964H82.208V492.205H77.258Z" fill="#0A2540"></path>
    <g clip-path="url(#Sticky-clip1_3869_234348)">
    <path d="M31.19 313.732L30.431 314.007C31.806 316.768 34.369 318.352 38.043 318.913C38.164 318.682 38.384 318.319 38.571 318.132C34.963 317.648 32.389 316.174 31.19 313.732ZM29.342 312.962V313.765H36.514V312.962H29.342ZM28.836 310.443V311.268H38.12V310.443H28.836ZM33.049 308.771V313.336H33.896V308.771H33.049ZM36.25 312.962V313.127C35.106 316.141 32.004 317.538 28.429 318.099C28.583 318.286 28.803 318.671 28.88 318.88C32.532 318.22 35.799 316.658 37.163 313.27L36.602 312.929L36.437 312.962H36.25ZM43.004 311.213V312.049H49.714V311.213H43.004ZM47.481 308.892V317.758C47.481 318.011 47.382 318.077 47.118 318.099C46.865 318.11 45.952 318.11 45.017 318.077C45.149 318.308 45.303 318.682 45.347 318.902C46.546 318.913 47.294 318.902 47.723 318.759C48.141 318.638 48.317 318.385 48.317 317.758V308.892H47.481ZM43.697 313.545C44.258 314.425 44.973 315.613 45.303 316.295L46.073 315.877C45.721 315.206 44.984 314.062 44.412 313.204L43.697 313.545ZM41.255 311.763V318.858H42.091V310.949L42.08 310.927L41.255 311.763ZM42.454 308.837C41.816 310.553 40.76 312.236 39.627 313.314C39.781 313.512 40.045 313.93 40.144 314.128C41.365 312.885 42.52 310.993 43.257 309.079L42.454 308.837ZM51.012 310.663V311.455H60.857V310.663H51.012ZM54.609 313.27V314.062H59.009V313.27H54.609ZM58.712 313.27L58.701 313.413C58.514 316.427 58.294 317.659 57.942 317.978C57.821 318.088 57.667 318.099 57.425 318.099C57.139 318.099 56.358 318.099 55.566 318.022C55.72 318.253 55.841 318.594 55.852 318.836C56.6 318.869 57.326 318.891 57.711 318.869C58.129 318.836 58.404 318.759 58.657 318.495C59.086 318.055 59.306 316.834 59.526 313.666C59.548 313.545 59.559 313.27 59.559 313.27H58.712ZM54.422 311.103C54.301 313.732 54.114 316.801 50.902 318.253C51.111 318.418 51.375 318.715 51.496 318.924C54.851 317.318 55.17 314.018 55.335 311.103H54.422ZM55.467 308.738V311.004H56.314V308.738H55.467ZM69.459 309.31C70.031 309.706 70.702 310.3 71.032 310.696L71.615 310.179C71.274 309.794 70.581 309.222 70.009 308.837L69.459 309.31ZM62.265 310.817V311.62H72.066V310.817H62.265ZM62.639 313.27V314.073H67.501V313.27H62.639ZM64.619 313.699V317.626H65.444V313.699H64.619ZM62.309 317.736L62.562 318.561C63.981 318.242 65.994 317.78 67.875 317.34L67.809 316.603C65.774 317.043 63.618 317.483 62.309 317.736ZM67.864 308.815C67.908 314.139 68.799 318.902 70.988 318.902C71.835 318.902 72.154 318.341 72.297 316.416C72.066 316.339 71.747 316.152 71.56 315.965C71.494 317.439 71.362 318.044 71.054 318.044C69.701 318.044 68.711 313.919 68.744 308.815H67.864Z" fill="#0A2540"></path>
    <rect x="28.5" y="326.5" width="121" height="53" rx="4.5" fill="white"></rect>
    <path fill-rule="evenodd" clip-rule="evenodd" d="M38 342C38 340.895 38.8954 340 40 340H52C53.1046 340 54 340.895 54 342L38 342ZM38 344V350C38 351.105 38.8954 352 40 352H52C53.1046 352 54 351.105 54 350V344H38ZM41 349C41 348.448 41.4477 348 42 348H43C43.5523 348 44 348.448 44 349C44 349.552 43.5523 350 43 350H42C41.4477 350 41 349.552 41 349Z" fill="#0A2540"></path>
    <path d="M39.145 359.541V360.333H46.262V359.541H39.145ZM39.145 362.104V362.885H46.251V362.104H39.145ZM39.09 364.733V365.514H46.273V364.733H39.09ZM38.683 359.541V363.523C38.683 365.074 38.562 367.032 37.352 368.396C37.528 368.506 37.858 368.781 37.99 368.946C39.299 367.483 39.497 365.206 39.497 363.534V359.541H38.683ZM45.932 359.541V367.758C45.932 367.967 45.855 368.033 45.646 368.044C45.437 368.044 44.689 368.055 43.908 368.022C44.029 368.242 44.161 368.605 44.194 368.825C45.239 368.836 45.877 368.825 46.251 368.693C46.614 368.55 46.746 368.297 46.746 367.758V359.541H45.932ZM42.137 359.838V368.781H42.973V359.838H42.137ZM53.689 359.255V359.981H57.319V363.336H53.689V364.062H58.078V359.255H53.689ZM53.722 361.312V362.005H57.649V361.312H53.722ZM55.68 363.655L55.031 363.787C55.537 366.13 56.56 367.934 58.309 368.803C58.43 368.583 58.672 368.253 58.848 368.088C57.165 367.384 56.142 365.723 55.68 363.655ZM58.133 364.447C57.627 364.931 56.725 365.58 56.109 365.954L56.538 366.482C57.176 366.119 58.034 365.547 58.661 365.019L58.133 364.447ZM53.249 368.891C53.469 368.748 53.81 368.627 56.076 368C56.054 367.824 56.032 367.483 56.043 367.252L53.579 367.846L53.194 368.154L53.249 368.891ZM53.249 368.891C53.249 368.583 54.096 368.077 54.096 368.077V359.255H53.282V367.428C53.282 367.879 53.051 368.11 52.875 368.209C53.007 368.363 53.194 368.704 53.249 368.891ZM50.158 358.793C49.817 359.827 49.234 360.806 48.563 361.455C48.706 361.642 48.926 362.06 48.992 362.236C49.773 361.433 50.488 360.223 50.906 359.013L50.158 358.793ZM49.96 360.025L49.795 360.806H52.655V360.025H49.96ZM49.41 361.983V362.731H52.501V361.983H49.41ZM48.838 364.227V364.975H52.743V364.227H48.838ZM50.301 368.803C50.488 368.616 50.796 368.44 52.864 367.373C52.809 367.208 52.754 366.878 52.732 366.669L50.499 367.747L50.202 368.077L50.301 368.803ZM50.301 368.803C50.301 368.517 51.159 368.066 51.159 368.066V362.247H50.378V367.384C50.378 367.824 50.136 368.011 49.96 368.099C50.081 368.264 50.246 368.616 50.301 368.803ZM64.185 359.431V360.223H69.586V359.431H64.185ZM67.397 362.709V367.813C67.397 368 67.331 368.044 67.111 368.055C66.913 368.066 66.176 368.066 65.395 368.044C65.516 368.286 65.626 368.627 65.659 368.858C66.737 368.858 67.364 368.847 67.738 368.726C68.112 368.594 68.233 368.341 68.233 367.824V362.709H67.397ZM63.701 362.467V363.248H69.905V362.467H63.701ZM61.501 363.314V368.913H62.326V362.643L62.227 362.599L61.501 363.314ZM62.777 361.114C62.018 362.379 60.808 363.655 59.664 364.469C59.84 364.623 60.126 364.986 60.247 365.151C61.402 364.227 62.7 362.808 63.558 361.411L62.777 361.114ZM62.326 358.76C61.765 359.552 60.698 360.542 59.785 361.158C59.928 361.323 60.148 361.642 60.269 361.818C61.248 361.114 62.381 360.047 63.118 359.079L62.326 358.76ZM71.172 362.819V363.633H81.039V362.819H71.172ZM75.946 360.344V361.147H79.851V360.344H75.946ZM75.451 358.76V363.204H76.309V358.76H75.451ZM75.451 363.369V368.88H76.309V363.369H75.451ZM76.067 365.206C77.31 365.558 78.971 366.163 79.818 366.581L80.247 365.844C79.356 365.415 77.684 364.865 76.474 364.546L76.067 365.206ZM84.99 363.732L84.231 364.007C85.606 366.768 88.169 368.352 91.843 368.913C91.964 368.682 92.184 368.319 92.371 368.132C88.763 367.648 86.189 366.174 84.99 363.732ZM83.142 362.962V363.765H90.314V362.962H83.142ZM82.636 360.443V361.268H91.92V360.443H82.636ZM86.849 358.771V363.336H87.696V358.771H86.849ZM90.05 362.962V363.127C88.906 366.141 85.804 367.538 82.229 368.099C82.383 368.286 82.603 368.671 82.68 368.88C86.332 368.22 89.599 366.658 90.963 363.27L90.402 362.929L90.237 362.962H90.05ZM96.784 361.213V362.049H103.494V361.213H96.784ZM101.261 358.892V367.758C101.261 368.011 101.162 368.077 100.898 368.099C100.645 368.11 99.732 368.11 98.797 368.077C98.929 368.308 99.083 368.682 99.127 368.902C100.326 368.913 101.074 368.902 101.503 368.759C101.921 368.638 102.097 368.385 102.097 367.758V358.892H101.261ZM97.477 363.545C98.038 364.425 98.753 365.613 99.083 366.295L99.853 365.877C99.501 365.206 98.764 364.062 98.192 363.204L97.477 363.545ZM95.035 361.763V368.858H95.871V360.949L95.86 360.927L95.035 361.763ZM96.234 358.837C95.596 360.553 94.54 362.236 93.407 363.314C93.561 363.512 93.825 363.93 93.924 364.128C95.145 362.885 96.3 360.993 97.037 359.079L96.234 358.837Z" fill="#0A2540"></path>
    <rect x="28.5" y="326.5" width="121" height="53" rx="4.5" stroke="#0A2540"></rect>
    <rect x="156.5" y="326.5" width="121" height="53" rx="4.5" fill="white"></rect>
    <path d="M167.145 359.541V360.333H174.262V359.541H167.145ZM167.145 362.104V362.885H174.251V362.104H167.145ZM167.09 364.733V365.514H174.273V364.733H167.09ZM166.683 359.541V363.523C166.683 365.074 166.562 367.032 165.352 368.396C165.528 368.506 165.858 368.781 165.99 368.946C167.299 367.483 167.497 365.206 167.497 363.534V359.541H166.683ZM173.932 359.541V367.758C173.932 367.967 173.855 368.033 173.646 368.044C173.437 368.044 172.689 368.055 171.908 368.022C172.029 368.242 172.161 368.605 172.194 368.825C173.239 368.836 173.877 368.825 174.251 368.693C174.614 368.55 174.746 368.297 174.746 367.758V359.541H173.932ZM170.137 359.838V368.781H170.973V359.838H170.137ZM179.39 363.732L178.631 364.007C180.006 366.768 182.569 368.352 186.243 368.913C186.364 368.682 186.584 368.319 186.771 368.132C183.163 367.648 180.589 366.174 179.39 363.732ZM177.542 362.962V363.765H184.714V362.962H177.542ZM177.036 360.443V361.268H186.32V360.443H177.036ZM181.249 358.771V363.336H182.096V358.771H181.249ZM184.45 362.962V363.127C183.306 366.141 180.204 367.538 176.629 368.099C176.783 368.286 177.003 368.671 177.08 368.88C180.732 368.22 183.999 366.658 185.363 363.27L184.802 362.929L184.637 362.962H184.45ZM191.184 361.213V362.049H197.894V361.213H191.184ZM195.661 358.892V367.758C195.661 368.011 195.562 368.077 195.298 368.099C195.045 368.11 194.132 368.11 193.197 368.077C193.329 368.308 193.483 368.682 193.527 368.902C194.726 368.913 195.474 368.902 195.903 368.759C196.321 368.638 196.497 368.385 196.497 367.758V358.892H195.661ZM191.877 363.545C192.438 364.425 193.153 365.613 193.483 366.295L194.253 365.877C193.901 365.206 193.164 364.062 192.592 363.204L191.877 363.545ZM189.435 361.763V368.858H190.271V360.949L190.26 360.927L189.435 361.763ZM190.634 358.837C189.996 360.553 188.94 362.236 187.807 363.314C187.961 363.512 188.225 363.93 188.324 364.128C189.545 362.885 190.7 360.993 191.437 359.079L190.634 358.837ZM203.638 362.676V368.154H204.485V362.676H203.638ZM200.371 362.368V363.138H207.829V362.368H200.371ZM200.657 364.799V365.569H207.587V364.799H200.657ZM199.326 367.791V368.561H208.885V367.791H199.326ZM205.354 366.119C205.981 366.581 206.74 367.241 207.092 367.703L207.697 367.208C207.334 366.779 206.564 366.119 205.926 365.69L205.354 366.119ZM203.638 358.771V360.542H204.507V358.771H203.638ZM199.513 360.069V362.401H200.349V360.861H207.807V362.401H208.676V360.069H199.513ZM212.99 363.732L212.231 364.007C213.606 366.768 216.169 368.352 219.843 368.913C219.964 368.682 220.184 368.319 220.371 368.132C216.763 367.648 214.189 366.174 212.99 363.732ZM211.142 362.962V363.765H218.314V362.962H211.142ZM210.636 360.443V361.268H219.92V360.443H210.636ZM214.849 358.771V363.336H215.696V358.771H214.849ZM218.05 362.962V363.127C216.906 366.141 213.804 367.538 210.229 368.099C210.383 368.286 210.603 368.671 210.68 368.88C214.332 368.22 217.599 366.658 218.963 363.27L218.402 362.929L218.237 362.962H218.05ZM224.784 361.213V362.049H231.494V361.213H224.784ZM229.261 358.892V367.758C229.261 368.011 229.162 368.077 228.898 368.099C228.645 368.11 227.732 368.11 226.797 368.077C226.929 368.308 227.083 368.682 227.127 368.902C228.326 368.913 229.074 368.902 229.503 368.759C229.921 368.638 230.097 368.385 230.097 367.758V358.892H229.261ZM225.477 363.545C226.038 364.425 226.753 365.613 227.083 366.295L227.853 365.877C227.501 365.206 226.764 364.062 226.192 363.204L225.477 363.545ZM223.035 361.763V368.858H223.871V360.949L223.86 360.927L223.035 361.763ZM224.234 358.837C223.596 360.553 222.54 362.236 221.407 363.314C221.561 363.512 221.825 363.93 221.924 364.128C223.145 362.885 224.3 360.993 225.037 359.079L224.234 358.837Z" fill="#727F96"></path>
    <g clip-path="url(#Sticky-clip2_3869_234348)">
    <path d="M165 340.208C165 338.827 166.119 337.708 167.5 337.708H178.5C179.881 337.708 181 338.827 181 340.208V351.208C181 352.588 179.881 353.708 178.5 353.708H167.5C166.119 353.708 165 352.588 165 351.208V340.208Z" fill="#FFB3C7"></path>
    <path fill-rule="evenodd" clip-rule="evenodd" d="M170.815 349.707H169V341.708H170.815V349.707ZM173.491 346.248C174.68 345.051 175.348 343.44 175.348 341.708L173.572 341.708C173.572 343.18 172.903 344.531 171.736 345.415L171.032 345.948L173.758 349.708H176L173.491 346.248ZM177.5 347.708C176.948 347.708 176.5 348.155 176.5 348.708C176.5 349.26 176.948 349.708 177.5 349.708C178.052 349.708 178.5 349.26 178.5 348.708C178.5 348.155 178.052 347.708 177.5 347.708Z" fill="#0A0B09"></path>
    </g>
    <g clip-path="url(#Sticky-clip3_3869_234348)">
    <path d="M165 340.249C165 338.833 166.146 337.685 167.563 337.685L178.438 337.685C179.853 337.685 181 338.833 181 340.249L181 351.011V351.122C181 352.537 179.853 353.685 178.437 353.685H167.563C166.146 353.685 165 352.537 165 351.122V340.249Z" fill="white"></path>
    <path d="M167.563 337.685C166.146 337.685 165 338.833 165 340.249V351.122C165 352.537 166.146 353.685 167.563 353.685H178.437C179.853 353.685 181 352.537 181 351.122V351.011C180.952 350.991 176.842 349.276 174.752 348.272C173.343 350.006 171.525 351.059 169.637 351.059C166.445 351.059 165.361 348.265 166.873 346.426C167.202 346.025 167.763 345.642 168.633 345.428C169.994 345.094 172.16 345.637 174.19 346.307C174.555 345.634 174.863 344.893 175.091 344.104H168.835V343.471H172.061V342.334H168.154V341.7H172.061V340.079C172.061 340.079 172.061 339.806 172.338 339.806H173.915V341.7H177.778V342.334H173.915V343.471H177.068C176.766 344.707 176.308 345.844 175.733 346.843C176.69 347.189 177.549 347.518 178.189 347.732C180.324 348.447 180.923 348.534 181 348.543V340.249C181 338.833 179.853 337.685 178.438 337.685H167.563L167.563 337.685ZM169.318 346.354C169.181 346.356 169.043 346.363 168.904 346.377C168.505 346.417 167.754 346.593 167.344 346.956C166.114 348.029 166.85 349.99 169.339 349.99C170.786 349.99 172.232 349.064 173.367 347.583C171.903 346.869 170.642 346.339 169.318 346.354L169.318 346.354Z" fill="#00A1E9"></path>
    </g>
    <rect x="156.5" y="326.5" width="121" height="53" rx="4.5" stroke="#E6EBF1"></rect>
    </g>
    <path d="M42.072 426.807C41.731 425.718 40.939 424.981 39.575 424.981C37.749 424.981 36.418 426.62 36.418 429.128C36.418 431.317 37.331 433.121 39.355 433.121C40.906 433.121 42.094 431.944 42.094 430.404C42.094 428.919 40.983 427.775 39.52 427.775C38.519 427.775 37.749 428.325 37.386 429.018V428.908C37.386 427.06 38.321 425.861 39.542 425.861C40.455 425.861 40.983 426.411 41.203 427.17L42.072 426.807ZM41.126 430.459C41.126 431.482 40.356 432.252 39.355 432.252C38.354 432.252 37.584 431.482 37.584 430.459C37.584 429.436 38.376 428.644 39.366 428.644C40.367 428.644 41.126 429.436 41.126 430.459ZM42.8193 432.131V433H48.2533V432.076H44.2603L46.0423 430.624C47.1753 429.711 48.0993 428.787 48.0993 427.445C48.0993 425.993 47.0873 424.981 45.4923 424.981C44.0403 424.981 42.8853 426.048 42.8853 427.456C42.8853 427.764 42.9403 428.028 43.0613 428.369H44.0513C43.9413 428.094 43.8753 427.797 43.8753 427.511C43.8753 426.609 44.5243 425.883 45.4703 425.883C46.4383 425.883 47.0653 426.543 47.0653 427.511C47.0653 428.545 46.2293 429.304 45.1513 430.195L42.8193 432.131ZM48.9434 429.051C48.9434 431.46 50.0764 433.121 51.9574 433.121C53.8274 433.121 54.9604 431.46 54.9604 429.051C54.9604 426.642 53.8274 424.981 51.9574 424.981C50.0764 424.981 48.9434 426.642 48.9434 429.051ZM49.9994 429.051C49.9994 427.203 50.6704 425.905 51.9574 425.905C53.2334 425.905 53.9154 427.203 53.9154 429.051C53.9154 430.899 53.2334 432.197 51.9574 432.197C50.6704 432.197 49.9994 430.899 49.9994 429.051ZM55.7969 429.051C55.7969 431.46 56.9299 433.121 58.8109 433.121C60.6809 433.121 61.8139 431.46 61.8139 429.051C61.8139 426.642 60.6809 424.981 58.8109 424.981C56.9299 424.981 55.7969 426.642 55.7969 429.051ZM56.8529 429.051C56.8529 427.203 57.5239 425.905 58.8109 425.905C60.0869 425.905 60.7689 427.203 60.7689 429.051C60.7689 430.899 60.0869 432.197 58.8109 432.197C57.5239 432.197 56.8529 430.899 56.8529 429.051ZM64.9707 429.051C64.9707 431.46 66.1037 433.121 67.9847 433.121C69.8547 433.121 70.9877 431.46 70.9877 429.051C70.9877 426.642 69.8547 424.981 67.9847 424.981C66.1037 424.981 64.9707 426.642 64.9707 429.051ZM66.0267 429.051C66.0267 427.203 66.6977 425.905 67.9847 425.905C69.2607 425.905 69.9427 427.203 69.9427 429.051C69.9427 430.899 69.2607 432.197 67.9847 432.197C66.6977 432.197 66.0267 430.899 66.0267 429.051ZM71.8243 429.051C71.8243 431.46 72.9573 433.121 74.8383 433.121C76.7083 433.121 77.8413 431.46 77.8413 429.051C77.8413 426.642 76.7083 424.981 74.8383 424.981C72.9573 424.981 71.8243 426.642 71.8243 429.051ZM72.8803 429.051C72.8803 427.203 73.5513 425.905 74.8383 425.905C76.1143 425.905 76.7963 427.203 76.7963 429.051C76.7963 430.899 76.1143 432.197 74.8383 432.197C73.5513 432.197 72.8803 430.899 72.8803 429.051ZM78.6778 429.051C78.6778 431.46 79.8108 433.121 81.6918 433.121C83.5618 433.121 84.6948 431.46 84.6948 429.051C84.6948 426.642 83.5618 424.981 81.6918 424.981C79.8108 424.981 78.6778 426.642 78.6778 429.051ZM79.7338 429.051C79.7338 427.203 80.4048 425.905 81.6918 425.905C82.9678 425.905 83.6498 427.203 83.6498 429.051C83.6498 430.899 82.9678 432.197 81.6918 432.197C80.4048 432.197 79.7338 430.899 79.7338 429.051ZM85.5313 429.051C85.5313 431.46 86.6643 433.121 88.5453 433.121C90.4153 433.121 91.5483 431.46 91.5483 429.051C91.5483 426.642 90.4153 424.981 88.5453 424.981C86.6643 424.981 85.5313 426.642 85.5313 429.051ZM86.5873 429.051C86.5873 427.203 87.2583 425.905 88.5453 425.905C89.8213 425.905 90.5033 427.203 90.5033 429.051C90.5033 430.899 89.8213 432.197 88.5453 432.197C87.2583 432.197 86.5873 430.899 86.5873 429.051ZM94.7051 429.051C94.7051 431.46 95.8381 433.121 97.7191 433.121C99.5891 433.121 100.722 431.46 100.722 429.051C100.722 426.642 99.5891 424.981 97.7191 424.981C95.8381 424.981 94.7051 426.642 94.7051 429.051ZM95.7611 429.051C95.7611 427.203 96.4321 425.905 97.7191 425.905C98.9951 425.905 99.6771 427.203 99.6771 429.051C99.6771 430.899 98.9951 432.197 97.7191 432.197C96.4321 432.197 95.7611 430.899 95.7611 429.051ZM101.559 429.051C101.559 431.46 102.692 433.121 104.573 433.121C106.443 433.121 107.576 431.46 107.576 429.051C107.576 426.642 106.443 424.981 104.573 424.981C102.692 424.981 101.559 426.642 101.559 429.051ZM102.615 429.051C102.615 427.203 103.286 425.905 104.573 425.905C105.849 425.905 106.531 427.203 106.531 429.051C106.531 430.899 105.849 432.197 104.573 432.197C103.286 432.197 102.615 430.899 102.615 429.051ZM108.412 429.051C108.412 431.46 109.545 433.121 111.426 433.121C113.296 433.121 114.429 431.46 114.429 429.051C114.429 426.642 113.296 424.981 111.426 424.981C109.545 424.981 108.412 426.642 108.412 429.051ZM109.468 429.051C109.468 427.203 110.139 425.905 111.426 425.905C112.702 425.905 113.384 427.203 113.384 429.051C113.384 430.899 112.702 432.197 111.426 432.197C110.139 432.197 109.468 430.899 109.468 429.051ZM115.266 429.051C115.266 431.46 116.399 433.121 118.28 433.121C120.15 433.121 121.283 431.46 121.283 429.051C121.283 426.642 120.15 424.981 118.28 424.981C116.399 424.981 115.266 426.642 115.266 429.051ZM116.322 429.051C116.322 427.203 116.993 425.905 118.28 425.905C119.556 425.905 120.238 427.203 120.238 429.051C120.238 430.899 119.556 432.197 118.28 432.197C116.993 432.197 116.322 430.899 116.322 429.051ZM124.439 429.051C124.439 431.46 125.572 433.121 127.453 433.121C129.323 433.121 130.456 431.46 130.456 429.051C130.456 426.642 129.323 424.981 127.453 424.981C125.572 424.981 124.439 426.642 124.439 429.051ZM125.495 429.051C125.495 427.203 126.166 425.905 127.453 425.905C128.729 425.905 129.411 427.203 129.411 429.051C129.411 430.899 128.729 432.197 127.453 432.197C126.166 432.197 125.495 430.899 125.495 429.051ZM131.293 429.051C131.293 431.46 132.426 433.121 134.307 433.121C136.177 433.121 137.31 431.46 137.31 429.051C137.31 426.642 136.177 424.981 134.307 424.981C132.426 424.981 131.293 426.642 131.293 429.051ZM132.349 429.051C132.349 427.203 133.02 425.905 134.307 425.905C135.583 425.905 136.265 427.203 136.265 429.051C136.265 430.899 135.583 432.197 134.307 432.197C133.02 432.197 132.349 430.899 132.349 429.051ZM138.147 429.051C138.147 431.46 139.28 433.121 141.161 433.121C143.031 433.121 144.164 431.46 144.164 429.051C144.164 426.642 143.031 424.981 141.161 424.981C139.28 424.981 138.147 426.642 138.147 429.051ZM139.203 429.051C139.203 427.203 139.874 425.905 141.161 425.905C142.437 425.905 143.119 427.203 143.119 429.051C143.119 430.899 142.437 432.197 141.161 432.197C139.874 432.197 139.203 430.899 139.203 429.051ZM146.343 429.326C146.607 428.952 147.113 428.655 147.773 428.655C148.774 428.655 149.456 429.458 149.456 430.459C149.456 431.471 148.686 432.241 147.685 432.241C146.706 432.241 146.024 431.592 145.859 430.58L144.847 430.789C145.122 432.285 146.2 433.121 147.685 433.121C149.269 433.121 150.446 431.933 150.446 430.437C150.446 428.941 149.434 427.797 147.894 427.797C147.201 427.797 146.662 428.072 146.321 428.413L146.53 426.026H150.017V425.102H145.716L145.375 429.161L146.343 429.326Z" fill="#2E3A55"></path>
    <path d="M248.7 421H254.69C255.527 421 256.047 421.726 255.852 422.621L253.063 435.382C252.866 436.273 252.029 437 251.192 437H245.202C244.367 437 243.846 436.273 244.041 435.382L246.831 422.621C247.026 421.726 247.863 421 248.7 421Z" fill="#DD2423"></path>
    <path d="M254.192 421H261.081C261.917 421 261.54 421.726 261.343 422.621L258.555 435.382C258.359 436.273 258.42 437 257.582 437H250.693C249.856 437 249.337 436.273 249.534 435.382L252.322 422.621C252.52 421.726 253.355 421 254.192 421Z" fill="#16315E"></path>
    <path d="M260.807 421H266.798C267.635 421 268.155 421.726 267.959 422.621L265.17 435.382C264.973 436.273 264.135 437 263.298 437H257.311C256.473 437 255.953 436.273 256.149 435.382L258.938 422.621C259.133 421.726 259.97 421 260.807 421Z" fill="#036862"></path>
    <path d="M250.265 425.09C249.649 425.096 249.467 425.09 249.408 425.075C249.386 425.188 248.97 427.232 248.969 427.234C248.88 427.647 248.815 427.942 248.593 428.132C248.468 428.243 248.321 428.296 248.151 428.296C247.878 428.296 247.719 428.151 247.692 427.877L247.687 427.783C247.687 427.783 247.77 427.229 247.77 427.226C247.77 427.226 248.207 425.364 248.285 425.118C248.289 425.104 248.29 425.096 248.291 425.09C247.442 425.098 247.291 425.09 247.281 425.075C247.275 425.095 247.254 425.211 247.254 425.211L246.809 427.31L246.771 427.488L246.697 428.07C246.697 428.243 246.728 428.384 246.792 428.503C246.995 428.881 247.574 428.937 247.901 428.937C248.323 428.937 248.719 428.842 248.986 428.667C249.451 428.375 249.572 427.918 249.68 427.512L249.731 427.304C249.731 427.304 250.18 425.369 250.256 425.118C250.259 425.104 250.261 425.096 250.265 425.09ZM251.794 426.65C251.685 426.65 251.487 426.678 251.309 426.771C251.245 426.806 251.184 426.847 251.12 426.888L251.178 426.664L251.146 426.626C250.769 426.708 250.684 426.719 250.336 426.771L250.307 426.792C250.266 427.149 250.23 427.418 250.08 428.12C250.023 428.379 249.964 428.641 249.905 428.899L249.921 428.932C250.278 428.912 250.386 428.912 250.696 428.917L250.721 428.888C250.761 428.673 250.766 428.623 250.853 428.187C250.894 427.98 250.98 427.526 251.022 427.364C251.099 427.326 251.176 427.288 251.249 427.288C251.423 427.288 251.402 427.45 251.395 427.514C251.388 427.623 251.324 427.976 251.259 428.279L251.216 428.475C251.186 428.619 251.152 428.76 251.122 428.903L251.135 428.932C251.487 428.912 251.595 428.912 251.895 428.917L251.93 428.888C251.985 428.552 252.001 428.462 252.097 427.973L252.146 427.748C252.24 427.308 252.287 427.085 252.216 426.903C252.14 426.699 251.96 426.65 251.794 426.65ZM253.502 427.111C253.315 427.149 253.195 427.175 253.077 427.191C252.959 427.211 252.845 427.229 252.664 427.256L252.65 427.27L252.637 427.281C252.618 427.425 252.605 427.549 252.58 427.694C252.558 427.845 252.526 428.016 252.473 428.263C252.432 428.451 252.411 428.517 252.387 428.583C252.365 428.649 252.339 428.714 252.293 428.899L252.304 428.916L252.313 428.932C252.482 428.923 252.593 428.917 252.706 428.916C252.82 428.912 252.937 428.916 253.119 428.917L253.135 428.903L253.152 428.888C253.178 428.721 253.182 428.676 253.198 428.595C253.214 428.507 253.242 428.386 253.309 428.063C253.341 427.911 253.376 427.759 253.409 427.604C253.444 427.45 253.48 427.298 253.514 427.146L253.509 427.128L253.502 427.111ZM253.506 426.49C253.336 426.383 253.038 426.417 252.837 426.564C252.637 426.709 252.614 426.914 252.783 427.023C252.95 427.127 253.25 427.096 253.449 426.947C253.648 426.799 253.673 426.595 253.506 426.49ZM254.534 428.965C254.877 428.965 255.23 428.864 255.495 428.565C255.699 428.322 255.793 427.96 255.825 427.811C255.931 427.318 255.849 427.087 255.745 426.947C255.589 426.733 255.312 426.664 255.024 426.664C254.851 426.664 254.439 426.682 254.118 426.998C253.887 427.226 253.78 427.536 253.716 427.832C253.651 428.134 253.576 428.678 254.045 428.881C254.19 428.947 254.399 428.965 254.534 428.965ZM254.507 427.855C254.586 427.481 254.68 427.167 254.919 427.167C255.106 427.167 255.119 427.401 255.036 427.776C255.021 427.859 254.953 428.169 254.86 428.3C254.796 428.398 254.719 428.457 254.635 428.457C254.61 428.457 254.461 428.457 254.458 428.22C254.457 428.103 254.479 427.984 254.507 427.855ZM256.685 428.917L256.712 428.888C256.75 428.673 256.756 428.622 256.841 428.187C256.883 427.98 256.97 427.526 257.011 427.364C257.089 427.326 257.164 427.288 257.239 427.288C257.412 427.288 257.391 427.45 257.384 427.514C257.378 427.623 257.315 427.976 257.248 428.279L257.207 428.475C257.176 428.62 257.142 428.76 257.112 428.903L257.125 428.932C257.478 428.912 257.581 428.912 257.883 428.917L257.92 428.888C257.973 428.552 257.987 428.462 258.086 427.973L258.134 427.748C258.228 427.308 258.276 427.085 258.206 426.903C258.129 426.699 257.947 426.65 257.783 426.65C257.674 426.65 257.475 426.678 257.299 426.771C257.235 426.806 257.172 426.847 257.11 426.888L257.164 426.664L257.135 426.626C256.758 426.708 256.672 426.719 256.324 426.771L256.297 426.792C256.255 427.149 256.221 427.418 256.071 428.12C256.014 428.379 255.954 428.641 255.895 428.899L255.911 428.932C256.268 428.912 256.375 428.912 256.685 428.917ZM259.279 428.932C259.301 428.816 259.433 428.132 259.434 428.132C259.434 428.132 259.546 427.63 259.553 427.612C259.553 427.612 259.589 427.559 259.624 427.539H259.676C260.166 427.539 260.72 427.539 261.154 427.198C261.45 426.965 261.651 426.62 261.742 426.201C261.765 426.099 261.782 425.977 261.782 425.854C261.782 425.694 261.752 425.535 261.665 425.411C261.443 425.081 261.002 425.075 260.494 425.073C260.492 425.073 260.243 425.075 260.243 425.075C259.591 425.084 259.33 425.081 259.223 425.067C259.214 425.118 259.197 425.208 259.197 425.208C259.197 425.208 258.963 426.36 258.963 426.362C258.963 426.362 258.405 428.812 258.379 428.928C258.948 428.92 259.181 428.92 259.279 428.932ZM259.711 426.885C259.711 426.885 259.959 425.735 259.958 425.739L259.966 425.68L259.97 425.635L260.069 425.646C260.069 425.646 260.58 425.693 260.592 425.694C260.794 425.777 260.877 425.992 260.819 426.272C260.766 426.528 260.611 426.743 260.41 426.847C260.246 426.935 260.044 426.942 259.836 426.942H259.701L259.711 426.885ZM261.256 427.876C261.19 428.174 261.115 428.718 261.582 428.912C261.731 428.979 261.864 428.999 262 428.992C262.143 428.984 262.276 428.907 262.399 428.797C262.388 428.842 262.377 428.888 262.366 428.933L262.387 428.962C262.723 428.947 262.827 428.947 263.191 428.95L263.224 428.923C263.277 428.59 263.327 428.267 263.465 427.63C263.533 427.325 263.6 427.023 263.669 426.719L263.658 426.685C263.282 426.759 263.182 426.775 262.82 426.83L262.793 426.854C262.789 426.885 262.785 426.914 262.782 426.944C262.726 426.847 262.644 426.765 262.518 426.713C262.358 426.646 261.98 426.733 261.655 427.048C261.427 427.273 261.318 427.581 261.256 427.876ZM262.045 427.894C262.125 427.527 262.218 427.217 262.457 427.217C262.609 427.217 262.688 427.366 262.672 427.62C262.659 427.683 262.646 427.75 262.629 427.825C262.605 427.934 262.579 428.042 262.554 428.151C262.528 428.225 262.498 428.295 262.465 428.341C262.404 428.434 262.257 428.492 262.173 428.492C262.149 428.492 262.001 428.492 261.996 428.26C261.995 428.144 262.017 428.025 262.045 427.894ZM266.167 426.682L266.138 426.647C265.766 426.727 265.699 426.74 265.357 426.789L265.332 426.816C265.331 426.82 265.33 426.827 265.328 426.833L265.327 426.827C265.072 427.452 265.08 427.317 264.873 427.81C264.872 427.787 264.872 427.773 264.871 427.75L264.819 426.682L264.786 426.647C264.397 426.727 264.387 426.74 264.028 426.789L264 426.816C263.996 426.829 263.996 426.843 263.993 426.858L263.996 426.863C264.041 427.108 264.03 427.054 264.075 427.44C264.096 427.63 264.124 427.821 264.145 428.008C264.18 428.322 264.2 428.476 264.244 428.955C264.001 429.382 263.943 429.543 263.709 429.919L263.711 429.922L263.546 430.2C263.527 430.229 263.51 430.249 263.486 430.258C263.46 430.272 263.426 430.274 263.378 430.274H263.287L263.152 430.755L263.617 430.763C263.89 430.762 264.062 430.626 264.154 430.443L264.447 429.909H264.442L264.473 429.871C264.67 429.419 266.167 426.682 266.167 426.682ZM261.256 432.997H261.058L261.789 430.422H262.031L262.108 430.157L262.116 430.452C262.107 430.634 262.241 430.796 262.595 430.769H263.004L263.145 430.273H262.991C262.902 430.273 262.861 430.249 262.866 430.198L262.859 429.898H262.102V429.899C261.857 429.905 261.125 429.925 260.977 429.967C260.798 430.016 260.609 430.16 260.609 430.16L260.684 429.895H259.975L259.828 430.422L259.087 433.037H258.943L258.803 433.529H260.214L260.166 433.693H260.862L260.908 433.529H261.103L261.256 432.997ZM260.677 430.945C260.563 430.979 260.352 431.08 260.352 431.08L260.54 430.422H261.103L260.967 430.901C260.967 430.901 260.793 430.912 260.677 430.945ZM260.688 431.886C260.688 431.886 260.511 431.909 260.394 431.937C260.28 431.974 260.065 432.091 260.065 432.091L260.259 431.406H260.825L260.688 431.886ZM260.372 433.003H259.808L259.971 432.425H260.534L260.372 433.003ZM261.732 431.406H262.546L262.429 431.81H261.604L261.48 432.251H262.202L261.656 433.071C261.617 433.131 261.583 433.152 261.545 433.169C261.507 433.19 261.456 433.214 261.398 433.214H261.198L261.061 433.698H261.584C261.856 433.698 262.017 433.566 262.136 433.392L262.51 432.846L262.591 433.401C262.608 433.505 262.678 433.566 262.725 433.589C262.778 433.617 262.832 433.665 262.909 433.673C262.991 433.676 263.05 433.679 263.089 433.679H263.347L263.501 433.138H263.4C263.341 433.138 263.241 433.128 263.224 433.108C263.207 433.085 263.207 433.048 263.198 432.993L263.116 432.437H262.782L262.928 432.251H263.752L263.878 431.81H263.116L263.235 431.406H263.994L264.135 430.908H261.87L261.732 431.406ZM254.858 433.116L255.048 432.442H255.829L255.971 431.941H255.19L255.309 431.527H256.073L256.214 431.042H254.304L254.165 431.527H254.599L254.483 431.941H254.048L253.904 432.451H254.338L254.085 433.342C254.051 433.46 254.101 433.505 254.133 433.56C254.165 433.613 254.198 433.648 254.272 433.668C254.349 433.687 254.401 433.698 254.472 433.698H255.353L255.509 433.143L255.119 433.2C255.044 433.2 254.835 433.19 254.858 433.116ZM254.948 429.892L254.75 430.273C254.707 430.356 254.669 430.408 254.635 430.432C254.605 430.452 254.545 430.46 254.458 430.46H254.355L254.217 430.948H254.56C254.725 430.948 254.851 430.883 254.912 430.851C254.977 430.814 254.994 430.835 255.044 430.783L255.16 430.677H256.23L256.372 430.169H255.589L255.726 429.892H254.948ZM256.528 433.126C256.51 433.098 256.523 433.048 256.551 432.946L256.843 431.913H257.884C258.036 431.911 258.146 431.909 258.217 431.904C258.293 431.895 258.377 431.866 258.467 431.814C258.561 431.759 258.609 431.701 258.649 431.635C258.694 431.569 258.767 431.424 258.829 431.201L259.197 429.895L258.117 429.902C258.117 429.902 257.784 429.954 257.637 430.012C257.49 430.076 257.279 430.256 257.279 430.256L257.376 429.898H256.709L255.775 433.2C255.742 433.328 255.719 433.421 255.714 433.477C255.712 433.537 255.785 433.597 255.833 433.642C255.889 433.687 255.971 433.679 256.051 433.687C256.134 433.693 256.253 433.698 256.416 433.698H256.929L257.086 433.131L256.627 433.177C256.578 433.177 256.543 433.149 256.528 433.126ZM257.032 431.216H258.126L258.056 431.448C258.046 431.454 258.023 431.437 257.912 431.451H256.965L257.032 431.216ZM257.251 430.438H258.354L258.274 430.717C258.274 430.717 257.755 430.712 257.672 430.728C257.305 430.796 257.092 431.004 257.092 431.004L257.251 430.438ZM258.081 432.226C258.071 432.261 258.057 432.282 258.037 432.298C258.015 432.313 257.979 432.318 257.925 432.318H257.77L257.779 432.036H257.131L257.105 433.418C257.104 433.518 257.113 433.575 257.181 433.622C257.25 433.679 257.461 433.687 257.745 433.687H258.151L258.297 433.169L257.944 433.19L257.826 433.197C257.81 433.19 257.795 433.183 257.778 433.165C257.763 433.149 257.738 433.159 257.742 433.059L257.745 432.705L258.115 432.689C258.315 432.689 258.401 432.619 258.474 432.553C258.544 432.49 258.566 432.417 258.593 432.318L258.655 432.005H258.146L258.081 432.226Z" fill="#FEFEFE"></path>
    <path d="M36 415.489H268C272.148 415.489 275.511 418.852 275.511 423V442.511H28.4888V423C28.4888 418.852 31.8517 415.489 36 415.489Z" stroke="#E7ECF1" stroke-width="0.977623"></path>
    <path d="M28.572 400.819V401.633H38.439V400.819H28.572ZM33.346 398.344V399.147H37.251V398.344H33.346ZM32.851 396.76V401.204H33.709V396.76H32.851ZM32.851 401.369V406.88H33.709V401.369H32.851ZM33.467 403.206C34.71 403.558 36.371 404.163 37.218 404.581L37.647 403.844C36.756 403.415 35.084 402.865 33.874 402.546L33.467 403.206ZM43.664 397.288V397.959H48.757V397.288H43.664ZM43.532 400.335V401.017H48.955V400.335H43.532ZM43.532 401.864V402.546H48.933V401.864H43.532ZM43.851 405.681V406.363H48.625V405.681H43.851ZM42.63 398.806V399.499H49.791V398.806H42.63ZM43.422 403.393V406.88H44.214V404.064H48.229V406.847H49.054V403.393H43.422ZM42.256 396.793C41.618 398.465 40.54 400.104 39.429 401.149C39.583 401.347 39.814 401.776 39.891 401.963C41.112 400.742 42.289 398.894 43.037 397.035L42.256 396.793ZM41.112 399.631V406.858H41.904V398.861L41.893 398.85L41.112 399.631ZM53.729 403.921V405.747C53.729 406.594 54.015 406.825 55.17 406.825C55.412 406.825 57.073 406.825 57.326 406.825C58.239 406.825 58.481 406.528 58.591 405.307C58.371 405.263 58.03 405.142 57.843 405.01C57.799 405.945 57.722 406.077 57.249 406.077C56.886 406.077 55.5 406.077 55.236 406.077C54.642 406.077 54.543 406.022 54.543 405.736V403.921H53.729ZM54.862 403.536C55.5 403.976 56.215 404.647 56.523 405.131L57.172 404.669C56.842 404.174 56.116 403.536 55.467 403.107L54.862 403.536ZM58.415 404.13C59.218 404.834 60.043 405.824 60.384 406.517L61.088 406.055C60.736 405.351 59.867 404.394 59.075 403.723L58.415 404.13ZM52.222 403.833C51.98 404.636 51.518 405.516 50.847 406.044L51.518 406.517C52.244 405.923 52.673 404.955 52.948 404.097L52.222 403.833ZM53.421 399.851H58.569V400.764H53.421V399.851ZM53.421 401.402H58.569V402.315H53.421V401.402ZM53.421 398.322H58.569V399.224H53.421V398.322ZM52.629 397.662V402.986H59.394V397.662H52.629ZM55.555 396.65C55.456 397.002 55.269 397.519 55.104 397.871L55.841 398.047C56.028 397.728 56.292 397.288 56.512 396.815L55.555 396.65Z" fill="#0A2540"></path>
    <path d="M38.42 452.058C38.343 452.971 38.035 453.29 37.1 453.356L36.253 453.411V454.192H38.156V460H39.212V452.058H38.42ZM40.6453 459.131V460H46.0793V459.076H42.0863L43.8683 457.624C45.0013 456.711 45.9253 455.787 45.9253 454.445C45.9253 452.993 44.9133 451.981 43.3183 451.981C41.8663 451.981 40.7113 453.048 40.7113 454.456C40.7113 454.764 40.7663 455.028 40.8873 455.369H41.8773C41.7673 455.094 41.7013 454.797 41.7013 454.511C41.7013 453.609 42.3503 452.883 43.2963 452.883C44.2643 452.883 44.8913 453.543 44.8913 454.511C44.8913 455.545 44.0553 456.304 42.9773 457.195L40.6453 459.131ZM46.7258 461.078H47.7378L50.9278 451.882H49.9158L46.7258 461.078ZM51.4115 459.131V460H56.8455V459.076H52.8525L54.6345 457.624C55.7675 456.711 56.6915 455.787 56.6915 454.445C56.6915 452.993 55.6795 451.981 54.0845 451.981C52.6325 451.981 51.4775 453.048 51.4775 454.456C51.4775 454.764 51.5325 455.028 51.6535 455.369H52.6435C52.5335 455.094 52.4675 454.797 52.4675 454.511C52.4675 453.609 53.1165 452.883 54.0625 452.883C55.0305 452.883 55.6575 453.543 55.6575 454.511C55.6575 455.545 54.8215 456.304 53.7435 457.195L51.4115 459.131ZM62.1712 460V457.943H63.7112V457.063H62.1822V452.102H60.8402L57.3752 457.118V457.943H61.1922V460H62.1712ZM58.4532 457.063L61.1812 453.114V457.063H58.4532Z" fill="#0A2540"></path>
    <path d="M28.4888 442.489H151.511V469.511H36C31.8517 469.511 28.4888 466.148 28.4888 462V442.489Z" stroke="#E7ECF1" stroke-width="0.977623"></path>
    <path d="M161.42 452.058C161.343 452.971 161.035 453.29 160.1 453.356L159.253 453.411V454.192H161.156V460H162.212V452.058H161.42ZM163.645 459.131V460H169.079V459.076H165.086L166.868 457.624C168.001 456.711 168.925 455.787 168.925 454.445C168.925 452.993 167.913 451.981 166.318 451.981C164.866 451.981 163.711 453.048 163.711 454.456C163.711 454.764 163.766 455.028 163.887 455.369H164.877C164.767 455.094 164.701 454.797 164.701 454.511C164.701 453.609 165.35 452.883 166.296 452.883C167.264 452.883 167.891 453.543 167.891 454.511C167.891 455.545 167.055 456.304 165.977 457.195L163.645 459.131ZM172.752 460.121C174.391 460.121 175.458 459.087 175.458 457.789C175.458 456.7 174.776 456.095 173.984 455.875C174.655 455.655 175.205 454.995 175.205 454.137C175.205 452.883 174.314 451.981 172.774 451.981C171.256 451.981 170.233 452.982 170.024 454.302L170.97 454.489C171.146 453.499 171.806 452.872 172.752 452.872C173.654 452.872 174.215 453.378 174.215 454.192C174.215 454.984 173.599 455.446 172.686 455.446H171.828V456.337H172.675C173.676 456.337 174.435 456.799 174.435 457.734C174.435 458.669 173.742 459.241 172.741 459.241C171.751 459.241 170.97 458.603 170.816 457.503L169.793 457.723C170.046 459.296 171.245 460.121 172.752 460.121Z" fill="#0A2540"></path>
    <rect x="245.971" y="450.183" width="19.583" height="13.8233" rx="2.30388" fill="#E6EBF1"></rect>
    <rect x="248.277" y="452.486" width="14.9752" height="2.30388" rx="1.15194" fill="white"></rect>
    <circle cx="262.672" cy="453.063" r="5.18374" fill="#B4C2D0"></circle>
    <path fill-rule="evenodd" clip-rule="evenodd" d="M262.233 454.789C262.984 454.789 263.459 454.336 263.459 453.785C263.459 453.37 263.233 453.127 262.938 453.01C263.187 452.912 263.385 452.641 263.385 452.3C263.385 451.744 262.957 451.333 262.256 451.333C261.533 451.333 261.081 451.805 261.003 452.389L261.708 452.473C261.754 452.188 261.938 451.978 262.224 451.978C262.487 451.978 262.643 452.123 262.643 452.352C262.643 452.604 262.454 452.716 262.164 452.716H261.865V453.337H262.173C262.487 453.337 262.708 453.444 262.708 453.72C262.708 454 262.496 454.145 262.219 454.145C261.934 454.145 261.708 453.958 261.671 453.626L260.92 453.748C261.012 454.43 261.542 454.789 262.233 454.789ZM260.385 454.74V451.373H259.8C259.754 451.751 259.57 451.905 259.132 451.938L258.855 451.961V452.545H259.62V454.74H260.385ZM266.371 453.614C266.371 454.3 265.841 454.791 265.136 454.791C264.454 454.791 263.952 454.426 263.855 453.763L264.602 453.642C264.643 453.955 264.841 454.151 265.132 454.151C265.422 454.151 265.648 453.936 265.648 453.632C265.648 453.334 265.459 453.1 265.159 453.1C264.961 453.1 264.823 453.193 264.745 453.306L264.049 453.221L264.201 451.386H266.164V452.054H264.786L264.731 452.67C264.851 452.572 265.04 452.484 265.275 452.484C265.956 452.484 266.371 452.969 266.371 453.614Z" fill="white"></path>
    <path d="M151.489 442.489H275.511V462C275.511 466.148 272.148 469.511 268 469.511H151.489V442.489Z" stroke="#E7ECF1" stroke-width="0.977623"></path>
    </g>
    <defs>
    <clipPath id="Sticky-clip0_3869_234348">
    <rect width="250" height="234" fill="white" transform="translate(28 308)"></rect>
    </clipPath>
    <clipPath id="Sticky-clip1_3869_234348">
    <rect width="250" height="72" fill="white" transform="translate(28 308)"></rect>
    </clipPath>
    <clipPath id="Sticky-clip2_3869_234348">
    <rect width="16" height="16" fill="white" transform="translate(165 337.708)"></rect>
    </clipPath>
    <clipPath id="Sticky-clip3_3869_234348">
    <rect width="16" height="16" fill="white" transform="translate(165 337.685)"></rect>
    </clipPath>
    </defs>
  </svg>