<svg data-js-target-list="HomepageFrontdoorPaymentsAnimation.screens" width="100%" height="auto" viewBox="0 0 303 617" fill="none" xmlns="http://www.w3.org/2000/svg">
    <path d="M38.815 337.102H37.825V345H38.815V343.075L39.651 342.228L41.631 345H42.786L40.355 341.513L42.599 339.247H41.367L38.815 341.931V337.102ZM44.691 337.102H43.701V345H44.691V337.102ZM50.4906 343.746V340.776C50.4906 339.72 49.6986 339.137 48.4226 339.137C47.1906 339.137 46.2336 339.72 46.1456 340.941H47.1136C47.1906 340.325 47.6086 340.006 48.3676 340.006C49.0716 340.006 49.5336 340.281 49.5336 340.919V341.271L48.1036 341.557C46.8166 341.81 45.9146 342.294 45.9146 343.438C45.9146 344.472 46.7726 345.099 47.8176 345.099C48.5656 345.099 49.2036 344.824 49.5556 344.406C49.5666 344.637 49.5776 344.835 49.5996 345H50.5786C50.5236 344.637 50.4906 344.175 50.4906 343.746ZM49.5336 343.042C49.5336 343.779 48.7966 344.296 47.9496 344.296C47.3226 344.296 46.9046 343.955 46.9046 343.394C46.9046 342.701 47.4876 342.459 48.3676 342.283L49.5336 342.041V343.042ZM55.0716 339.225C54.9726 339.214 54.8296 339.203 54.6756 339.203C53.8946 339.203 53.3336 339.643 53.0806 340.226V339.247H52.0906V345H53.0806V341.854C53.0806 340.842 53.7516 340.182 54.5876 340.182C54.7746 340.182 54.9066 340.193 55.0716 340.226V339.225ZM60.1908 343.746V340.776C60.1908 339.72 59.3988 339.137 58.1227 339.137C56.8908 339.137 55.9338 339.72 55.8458 340.941H56.8138C56.8908 340.325 57.3088 340.006 58.0678 340.006C58.7718 340.006 59.2338 340.281 59.2338 340.919V341.271L57.8038 341.557C56.5168 341.81 55.6148 342.294 55.6148 343.438C55.6148 344.472 56.4728 345.099 57.5178 345.099C58.2658 345.099 58.9038 344.824 59.2558 344.406C59.2668 344.637 59.2778 344.835 59.2998 345H60.2788C60.2238 344.637 60.1908 344.175 60.1908 343.746ZM59.2338 343.042C59.2338 343.779 58.4968 344.296 57.6498 344.296C57.0228 344.296 56.6048 343.955 56.6048 343.394C56.6048 342.701 57.1878 342.459 58.0678 342.283L59.2338 342.041V343.042ZM61.5598 345H62.8138V343.702H61.5598V345ZM63.602 343.779C64.042 344.67 65.087 345.121 66.132 345.121C67.364 345.121 68.365 344.395 68.365 343.295C68.365 342.041 67.232 341.843 66.242 341.612C65.439 341.436 64.933 341.337 64.933 340.798C64.933 340.281 65.373 339.951 66.033 339.951C66.759 339.951 67.298 340.314 67.595 340.886L68.299 340.325C67.958 339.643 67.111 339.137 66.077 339.137C64.856 339.137 63.965 339.852 63.965 340.875C63.965 342.052 64.955 342.261 65.901 342.47C66.847 342.668 67.397 342.756 67.397 343.383C67.397 344.01 66.803 344.296 66.132 344.296C65.384 344.296 64.68 343.889 64.372 343.218L63.602 343.779ZM70.1836 342.129C70.1836 340.809 70.8876 339.995 71.9106 339.995C72.7026 339.995 73.1756 340.512 73.3406 341.216L74.1986 340.787C73.9236 339.83 73.1096 339.137 71.9106 339.137C70.3046 339.137 69.1936 340.347 69.1936 342.129C69.1936 343.9 70.3046 345.121 71.9106 345.121C73.1096 345.121 73.9456 344.395 74.2206 343.438L73.3406 343.031C73.1756 343.746 72.7026 344.252 71.9106 344.252C70.8876 344.252 70.1836 343.438 70.1836 342.129ZM75.3045 345H76.2945V341.568C76.2945 340.611 77.0205 340.061 77.7355 340.061C78.5935 340.061 78.9345 340.666 78.9345 341.469V345H79.9245V341.205C79.9245 339.984 79.2315 339.137 78.0105 339.137C77.1965 339.137 76.6245 339.555 76.2945 340.028V337.102H75.3045V345ZM86.0785 339.247H85.0885V342.712C85.0885 343.669 84.3625 344.208 83.6475 344.208C82.8005 344.208 82.4485 343.658 82.4485 342.844V339.247H81.4585V343.053C81.4585 344.274 82.1515 345.121 83.3835 345.121C84.1975 345.121 84.7585 344.692 85.0885 344.208V345H86.0785V339.247ZM90.7035 339.225C90.6045 339.214 90.4615 339.203 90.3075 339.203C89.5265 339.203 88.9655 339.643 88.7125 340.226V339.247H87.7225V345H88.7125V341.854C88.7125 340.842 89.3835 340.182 90.2195 340.182C90.4065 340.182 90.5385 340.193 90.7035 340.226V339.225ZM91.7498 338.246H92.8278V337.102H91.7498V338.246ZM92.7838 339.247H91.7938V345H92.7838V339.247ZM99.3093 344.483V339.247H98.3193V340.094C98.0113 339.533 97.3513 339.137 96.5593 339.137C94.9863 339.137 94.0623 340.435 94.0623 341.997C94.0623 343.57 94.9863 344.868 96.5593 344.868C97.3623 344.868 98.0113 344.472 98.3193 343.911V344.56C98.3193 345.759 97.6483 346.276 96.6363 346.276C95.8333 346.276 95.2393 345.847 95.0523 345.11L94.1283 345.462C94.4473 346.518 95.3713 347.101 96.6363 347.101C98.1983 347.101 99.3093 346.166 99.3093 344.483ZM98.3303 341.909V342.118C98.3303 343.383 97.5603 343.999 96.7353 343.999C95.6903 343.999 95.0523 343.207 95.0523 341.997C95.0523 340.787 95.6903 340.006 96.7353 340.006C97.5603 340.006 98.3303 340.622 98.3303 341.909ZM107.293 343.812C106.897 343.812 106.688 343.603 106.787 343.009L107.326 340.05H106.435L106.292 340.743C106.149 340.347 105.709 339.962 105.005 339.962C103.762 339.962 102.794 341.227 102.794 342.701C102.794 343.889 103.52 344.582 104.488 344.582C105.093 344.582 105.654 344.296 105.951 343.812C106.105 344.274 106.512 344.549 107.194 344.549C108.305 344.549 109.449 343.548 109.449 341.59C109.449 339.324 107.634 337.861 105.346 337.861C102.64 337.861 100.583 339.94 100.583 342.547C100.583 345.22 102.585 346.793 105.148 346.793C106.237 346.793 107.271 346.54 108.118 345.924L107.711 345.264C106.952 345.781 106.127 346.001 105.137 346.001C103.014 346.001 101.463 344.725 101.463 342.558C101.463 340.325 103.157 338.631 105.313 338.631C107.227 338.631 108.602 339.775 108.602 341.645C108.602 343.064 107.942 343.812 107.293 343.812ZM105.907 342.503C105.753 343.273 105.313 343.779 104.708 343.779C104.125 343.779 103.784 343.361 103.784 342.679C103.784 341.634 104.345 340.754 105.17 340.754C105.72 340.754 106.028 341.183 106.028 341.667C106.028 341.788 106.017 341.931 105.907 342.503ZM113.01 345.121C114.154 345.121 115.023 344.494 115.375 343.471L114.506 343.163C114.33 343.845 113.78 344.263 113.01 344.263C112.009 344.263 111.316 343.493 111.261 342.283H115.419V341.953C115.419 340.358 114.572 339.137 112.966 339.137C111.404 339.137 110.315 340.413 110.315 342.129C110.315 343.9 111.415 345.121 113.01 345.121ZM112.955 339.984C113.956 339.984 114.396 340.71 114.418 341.524H111.316C111.492 340.545 112.119 339.984 112.955 339.984ZM119.957 345H121.079L118.967 341.997L120.892 339.247H119.803L118.395 341.26L117.009 339.247H115.876L117.801 341.997L115.7 345H116.778L118.362 342.734L119.957 345ZM126.04 343.746V340.776C126.04 339.72 125.248 339.137 123.972 339.137C122.74 339.137 121.783 339.72 121.695 340.941H122.663C122.74 340.325 123.158 340.006 123.917 340.006C124.621 340.006 125.083 340.281 125.083 340.919V341.271L123.653 341.557C122.366 341.81 121.464 342.294 121.464 343.438C121.464 344.472 122.322 345.099 123.367 345.099C124.115 345.099 124.753 344.824 125.105 344.406C125.116 344.637 125.127 344.835 125.149 345H126.128C126.073 344.637 126.04 344.175 126.04 343.746ZM125.083 343.042C125.083 343.779 124.346 344.296 123.499 344.296C122.872 344.296 122.454 343.955 122.454 343.394C122.454 342.701 123.037 342.459 123.917 342.283L125.083 342.041V343.042ZM128.63 341.557C128.63 340.622 129.334 340.061 129.994 340.061C130.808 340.061 131.138 340.666 131.138 341.469V345H132.128V341.557C132.128 340.622 132.832 340.061 133.492 340.061C134.306 340.061 134.636 340.666 134.636 341.469V345H135.626V341.205C135.626 339.984 134.911 339.137 133.723 339.137C132.821 339.137 132.205 339.643 131.886 340.116C131.6 339.522 131.061 339.137 130.291 339.137C129.488 339.137 128.938 339.555 128.63 340.028V339.247H127.64V345H128.63V341.557ZM139.994 345.121C141.589 345.121 142.502 343.757 142.502 342.129C142.502 340.49 141.589 339.137 139.994 339.137C139.191 339.137 138.553 339.522 138.212 340.083V339.247H137.222V346.98H138.212V344.164C138.553 344.736 139.191 345.121 139.994 345.121ZM138.19 341.931C138.19 340.589 139.004 340.006 139.818 340.006C140.896 340.006 141.501 340.886 141.501 342.129C141.501 343.361 140.896 344.252 139.818 344.252C139.004 344.252 138.19 343.658 138.19 342.338V341.931ZM144.744 337.102H143.754V345H144.744V337.102ZM148.695 345.121C149.839 345.121 150.708 344.494 151.06 343.471L150.191 343.163C150.015 343.845 149.465 344.263 148.695 344.263C147.694 344.263 147.001 343.493 146.946 342.283H151.104V341.953C151.104 340.358 150.257 339.137 148.651 339.137C147.089 339.137 146 340.413 146 342.129C146 343.9 147.1 345.121 148.695 345.121ZM148.64 339.984C149.641 339.984 150.081 340.71 150.103 341.524H147.001C147.177 340.545 147.804 339.984 148.64 339.984ZM151.988 345H153.242V343.702H151.988V345ZM156.447 345.121C157.25 345.121 157.888 344.736 158.229 344.164V345H159.219V337.102H158.229V340.083C157.888 339.522 157.25 339.137 156.447 339.137C154.852 339.137 153.939 340.49 153.939 342.129C153.939 343.757 154.852 345.121 156.447 345.121ZM158.251 341.931V342.338C158.251 343.658 157.437 344.252 156.623 344.252C155.545 344.252 154.94 343.361 154.94 342.129C154.94 340.886 155.545 340.006 156.623 340.006C157.437 340.006 158.251 340.589 158.251 341.931ZM163.154 345.121C164.298 345.121 165.167 344.494 165.519 343.471L164.65 343.163C164.474 343.845 163.924 344.263 163.154 344.263C162.153 344.263 161.46 343.493 161.405 342.283H165.563V341.953C165.563 340.358 164.716 339.137 163.11 339.137C161.548 339.137 160.459 340.413 160.459 342.129C160.459 343.9 161.559 345.121 163.154 345.121ZM163.099 339.984C164.1 339.984 164.54 340.71 164.562 341.524H161.46C161.636 340.545 162.263 339.984 163.099 339.984Z" fill="#2E3A55"></path>
    <rect x="28.4888" y="327.489" width="247.022" height="27.0224" rx="7.51119" stroke="#E7ECF1" stroke-width="0.977623"></rect>
    <path d="M28.869 311.102V319H34.028V318.076H29.914V315.381H33.401V314.457H29.914V312.026H34.028V311.102H28.869ZM34.947 316.239H37.95V315.348H34.947V316.239ZM43.846 319L46.266 312.499V319H47.245V311.102H45.848L43.439 317.592L41.041 311.102H39.6V319H40.59V312.499L42.999 319H43.846ZM53.3117 317.746V314.776C53.3117 313.72 52.5197 313.137 51.2437 313.137C50.0117 313.137 49.0547 313.72 48.9667 314.941H49.9347C50.0117 314.325 50.4297 314.006 51.1887 314.006C51.8927 314.006 52.3547 314.281 52.3547 314.919V315.271L50.9247 315.557C49.6377 315.81 48.7357 316.294 48.7357 317.438C48.7357 318.472 49.5937 319.099 50.6387 319.099C51.3867 319.099 52.0247 318.824 52.3767 318.406C52.3877 318.637 52.3987 318.835 52.4207 319H53.3997C53.3447 318.637 53.3117 318.175 53.3117 317.746ZM52.3547 317.042C52.3547 317.779 51.6177 318.296 50.7707 318.296C50.1437 318.296 49.7257 317.955 49.7257 317.394C49.7257 316.701 50.3087 316.459 51.1887 316.283L52.3547 316.041V317.042ZM55.0878 312.246H56.1658V311.102H55.0878V312.246ZM56.1218 313.247H55.1318V319H56.1218V313.247ZM58.9843 311.102H57.9943V319H58.9843V311.102Z" fill="#0A2540"></path>
    <g clip-path="url(#Sticky-clip0_3869_234347)">
    <path d="M34.435 381.076H29.749L34.391 374.916V374.102H28.473V375.026H33.06L28.418 381.186V382H34.435V381.076ZM40.0133 380.746V377.776C40.0133 376.72 39.2213 376.137 37.9453 376.137C36.7133 376.137 35.7563 376.72 35.6683 377.941H36.6363C36.7133 377.325 37.1313 377.006 37.8903 377.006C38.5943 377.006 39.0563 377.281 39.0563 377.919V378.271L37.6263 378.557C36.3393 378.81 35.4373 379.294 35.4373 380.438C35.4373 381.472 36.2953 382.099 37.3403 382.099C38.0883 382.099 38.7263 381.824 39.0783 381.406C39.0893 381.637 39.1003 381.835 39.1223 382H40.1013C40.0463 381.637 40.0133 381.175 40.0133 380.746ZM39.0563 380.042C39.0563 380.779 38.3193 381.296 37.4723 381.296C36.8453 381.296 36.4273 380.955 36.4273 380.394C36.4273 379.701 37.0103 379.459 37.8903 379.283L39.0563 379.041V380.042ZM41.8334 382H42.8234V378.568C42.8234 377.611 43.5494 377.061 44.2644 377.061C45.1224 377.061 45.4634 377.666 45.4634 378.469V382H46.4534V378.205C46.4534 376.984 45.7604 376.137 44.5394 376.137C43.7254 376.137 43.1534 376.555 42.8234 377.028V374.102H41.8334V382ZM49.2523 374.102H48.2623V382H49.2523V374.102ZM55.6899 376.247H54.6999V379.712C54.6999 380.669 53.9739 381.208 53.2589 381.208C52.4119 381.208 52.0599 380.658 52.0599 379.844V376.247H51.0699V380.053C51.0699 381.274 51.7629 382.121 52.9949 382.121C53.8089 382.121 54.3699 381.692 54.6999 381.208V382H55.6899V376.247ZM57.5539 382H58.5439V378.568C58.5439 377.611 59.2699 377.061 59.9849 377.061C60.8429 377.061 61.1839 377.666 61.1839 378.469V382H62.1739V378.205C62.1739 376.984 61.4809 376.137 60.2599 376.137C59.4459 376.137 58.8739 376.555 58.5439 377.028V376.247H57.5539V382ZM68.8559 381.483V376.247H67.8659V377.094C67.5579 376.533 66.8979 376.137 66.1059 376.137C64.5329 376.137 63.6089 377.435 63.6089 378.997C63.6089 380.57 64.5329 381.868 66.1059 381.868C66.9089 381.868 67.5579 381.472 67.8659 380.911V381.56C67.8659 382.759 67.1949 383.276 66.1829 383.276C65.3799 383.276 64.7859 382.847 64.5989 382.11L63.6749 382.462C63.9939 383.518 64.9179 384.101 66.1829 384.101C67.7449 384.101 68.8559 383.166 68.8559 381.483ZM67.8769 378.909V379.118C67.8769 380.383 67.1069 380.999 66.2819 380.999C65.2369 380.999 64.5989 380.207 64.5989 378.997C64.5989 377.787 65.2369 377.006 66.2819 377.006C67.1069 377.006 67.8769 377.622 67.8769 378.909ZM70.0854 380.779C70.5254 381.67 71.5704 382.121 72.6154 382.121C73.8474 382.121 74.8484 381.395 74.8484 380.295C74.8484 379.041 73.7154 378.843 72.7254 378.612C71.9224 378.436 71.4164 378.337 71.4164 377.798C71.4164 377.281 71.8564 376.951 72.5164 376.951C73.2424 376.951 73.7814 377.314 74.0784 377.886L74.7824 377.325C74.4414 376.643 73.5944 376.137 72.5604 376.137C71.3394 376.137 70.4484 376.852 70.4484 377.875C70.4484 379.052 71.4384 379.261 72.3844 379.47C73.3304 379.668 73.8804 379.756 73.8804 380.383C73.8804 381.01 73.2864 381.296 72.6154 381.296C71.8674 381.296 71.1634 380.889 70.8554 380.218L70.0854 380.779ZM77.283 378.557C77.283 377.622 77.987 377.061 78.647 377.061C79.461 377.061 79.791 377.666 79.791 378.469V382H80.781V378.557C80.781 377.622 81.485 377.061 82.145 377.061C82.959 377.061 83.289 377.666 83.289 378.469V382H84.279V378.205C84.279 376.984 83.564 376.137 82.376 376.137C81.474 376.137 80.858 376.643 80.539 377.116C80.253 376.522 79.714 376.137 78.944 376.137C78.141 376.137 77.591 376.555 77.283 377.028V376.247H76.293V382H77.283V378.557ZM88.394 382.121C89.538 382.121 90.407 381.494 90.759 380.471L89.89 380.163C89.714 380.845 89.164 381.263 88.394 381.263C87.393 381.263 86.7 380.493 86.645 379.283H90.803V378.953C90.803 377.358 89.956 376.137 88.35 376.137C86.788 376.137 85.699 377.413 85.699 379.129C85.699 380.9 86.799 382.121 88.394 382.121ZM88.339 376.984C89.34 376.984 89.78 377.71 89.802 378.524H86.7C86.876 377.545 87.503 376.984 88.339 376.984ZM92.4095 380.625C92.4095 381.725 92.9705 382.055 93.9495 382.055C94.2795 382.055 94.5655 382.022 94.8185 381.967V381.12C94.5875 381.175 94.4225 381.186 94.1915 381.186C93.6855 381.186 93.3885 381.076 93.3885 380.471V377.094H94.6975V376.247H93.3885V374.564H92.4095V376.247H91.5185V377.094H92.4095V380.625ZM96.2137 382H97.2037V378.568C97.2037 377.611 97.9297 377.061 98.6447 377.061C99.5027 377.061 99.8437 377.666 99.8437 378.469V382H100.834V378.205C100.834 376.984 100.141 376.137 98.9197 376.137C98.1057 376.137 97.5337 376.555 97.2037 377.028V374.102H96.2137V382ZM107.593 379.129C107.593 377.347 106.493 376.137 104.92 376.137C103.347 376.137 102.247 377.347 102.247 379.129C102.247 380.911 103.347 382.121 104.92 382.121C106.493 382.121 107.593 380.911 107.593 379.129ZM103.248 379.129C103.248 377.809 103.908 376.973 104.92 376.973C105.932 376.973 106.592 377.809 106.592 379.129C106.592 380.438 105.932 381.274 104.92 381.274C103.908 381.274 103.248 380.438 103.248 379.129ZM111.184 382.121C111.987 382.121 112.625 381.736 112.966 381.164V382H113.956V374.102H112.966V377.083C112.625 376.522 111.987 376.137 111.184 376.137C109.589 376.137 108.676 377.49 108.676 379.129C108.676 380.757 109.589 382.121 111.184 382.121ZM112.988 378.931V379.338C112.988 380.658 112.174 381.252 111.36 381.252C110.282 381.252 109.677 380.361 109.677 379.129C109.677 377.886 110.282 377.006 111.36 377.006C112.174 377.006 112.988 377.589 112.988 378.931ZM118.111 382.121C119.255 382.121 120.124 381.494 120.476 380.471L119.607 380.163C119.431 380.845 118.881 381.263 118.111 381.263C117.11 381.263 116.417 380.493 116.362 379.283H120.52V378.953C120.52 377.358 119.673 376.137 118.067 376.137C116.505 376.137 115.416 377.413 115.416 379.129C115.416 380.9 116.516 382.121 118.111 382.121ZM118.056 376.984C119.057 376.984 119.497 377.71 119.519 378.524H116.417C116.593 377.545 117.22 376.984 118.056 376.984ZM121.973 382H122.963V378.568C122.963 377.611 123.689 377.061 124.404 377.061C125.262 377.061 125.603 377.666 125.603 378.469V382H126.593V378.205C126.593 376.984 125.9 376.137 124.679 376.137C123.865 376.137 123.293 376.555 122.963 377.028V376.247H121.973V382Z" fill="#0A2540"></path>
    <rect x="28.5" y="389.5" width="121" height="53" rx="4.5" fill="white"></rect>
    <path fill-rule="evenodd" clip-rule="evenodd" d="M38 405C38 403.895 38.8954 403 40 403H52C53.1046 403 54 403.895 54 405L38 405ZM38 407V413C38 414.105 38.8954 415 40 415H52C53.1046 415 54 414.105 54 413V407H38ZM41 412C41 411.448 41.4477 411 42 411H43C43.5523 411 44 411.448 44 412C44 412.552 43.5523 413 43 413H42C41.4477 413 41 412.552 41 412Z" fill="#6B7C93"></path>
    <path d="M38.925 422.102H37.869V430H38.925V427.415L39.959 426.304L42.775 430H44.018L40.663 425.545L43.864 422.102H42.599L38.925 426.095V422.102ZM49.2081 428.746V425.776C49.2081 424.72 48.4161 424.137 47.1401 424.137C45.9081 424.137 44.9511 424.72 44.8631 425.941H45.8311C45.9081 425.325 46.3261 425.006 47.0851 425.006C47.7891 425.006 48.2511 425.281 48.2511 425.919V426.271L46.8211 426.557C45.5341 426.81 44.6321 427.294 44.6321 428.438C44.6321 429.472 45.4901 430.099 46.5351 430.099C47.2831 430.099 47.9211 429.824 48.2731 429.406C48.2841 429.637 48.2951 429.835 48.3171 430H49.2961C49.2411 429.637 49.2081 429.175 49.2081 428.746ZM48.2511 428.042C48.2511 428.779 47.5141 429.296 46.6671 429.296C46.0401 429.296 45.6221 428.955 45.6221 428.394C45.6221 427.701 46.2051 427.459 47.0851 427.283L48.2511 427.041V428.042ZM53.9892 424.225C53.8902 424.214 53.7472 424.203 53.5932 424.203C52.8122 424.203 52.2512 424.643 51.9982 425.226V424.247H51.0082V430H51.9982V426.854C51.9982 425.842 52.6692 425.182 53.5052 425.182C53.6922 425.182 53.8242 425.193 53.9892 425.226V424.225ZM55.4979 428.625C55.4979 429.725 56.0589 430.055 57.0379 430.055C57.3679 430.055 57.6539 430.022 57.9069 429.967V429.12C57.6759 429.175 57.5109 429.186 57.2799 429.186C56.7739 429.186 56.4769 429.076 56.4769 428.471V425.094H57.7859V424.247H56.4769V422.564H55.4979V424.247H54.6069V425.094H55.4979V428.625ZM61.549 430.121C62.693 430.121 63.562 429.494 63.914 428.471L63.045 428.163C62.869 428.845 62.319 429.263 61.549 429.263C60.548 429.263 59.855 428.493 59.8 427.283H63.958V426.953C63.958 425.358 63.111 424.137 61.505 424.137C59.943 424.137 58.854 425.413 58.854 427.129C58.854 428.9 59.954 430.121 61.549 430.121ZM61.494 424.984C62.495 424.984 62.935 425.71 62.957 426.524H59.855C60.031 425.545 60.658 424.984 61.494 424.984Z" fill="#727F96"></path>
    <rect x="28.5" y="389.5" width="121" height="53" rx="4.5" stroke="#E6EBF1"></rect>
    <rect x="156.5" y="389.5" width="121" height="53" rx="4.5" fill="white"></rect>
    <path d="M166.925 422.102H165.869V430H166.925V427.415L167.959 426.304L170.775 430H172.018L168.663 425.545L171.864 422.102H170.599L166.925 426.095V422.102ZM174.04 422.102H173.05V430H174.04V422.102ZM180.04 428.746V425.776C180.04 424.72 179.248 424.137 177.972 424.137C176.74 424.137 175.783 424.72 175.695 425.941H176.663C176.74 425.325 177.158 425.006 177.917 425.006C178.621 425.006 179.083 425.281 179.083 425.919V426.271L177.653 426.557C176.366 426.81 175.464 427.294 175.464 428.438C175.464 429.472 176.322 430.099 177.367 430.099C178.115 430.099 178.753 429.824 179.105 429.406C179.116 429.637 179.127 429.835 179.149 430H180.128C180.073 429.637 180.04 429.175 180.04 428.746ZM179.083 428.042C179.083 428.779 178.346 429.296 177.499 429.296C176.872 429.296 176.454 428.955 176.454 428.394C176.454 427.701 177.037 427.459 177.917 427.283L179.083 427.041V428.042ZM184.821 424.225C184.722 424.214 184.579 424.203 184.425 424.203C183.644 424.203 183.083 424.643 182.83 425.226V424.247H181.84V430H182.83V426.854C182.83 425.842 183.501 425.182 184.337 425.182C184.524 425.182 184.656 425.193 184.821 425.226V424.225ZM186.111 430H187.101V426.568C187.101 425.611 187.827 425.061 188.542 425.061C189.4 425.061 189.741 425.666 189.741 426.469V430H190.731V426.205C190.731 424.984 190.038 424.137 188.817 424.137C188.003 424.137 187.431 424.555 187.101 425.028V424.247H186.111V430ZM196.667 428.746V425.776C196.667 424.72 195.875 424.137 194.599 424.137C193.367 424.137 192.41 424.72 192.322 425.941H193.29C193.367 425.325 193.785 425.006 194.544 425.006C195.248 425.006 195.71 425.281 195.71 425.919V426.271L194.28 426.557C192.993 426.81 192.091 427.294 192.091 428.438C192.091 429.472 192.949 430.099 193.994 430.099C194.742 430.099 195.38 429.824 195.732 429.406C195.743 429.637 195.754 429.835 195.776 430H196.755C196.7 429.637 196.667 429.175 196.667 428.746ZM195.71 428.042C195.71 428.779 194.973 429.296 194.126 429.296C193.499 429.296 193.081 428.955 193.081 428.394C193.081 427.701 193.664 427.459 194.544 427.283L195.71 427.041V428.042Z" fill="#0A2540"></path>
    <g clip-path="url(#Sticky-clip1_3869_234347)">
    <path d="M165 403.208C165 401.827 166.119 400.708 167.5 400.708H178.5C179.881 400.708 181 401.827 181 403.208V414.208C181 415.588 179.881 416.708 178.5 416.708H167.5C166.119 416.708 165 415.588 165 414.208V403.208Z" fill="#FFB3C7"></path>
    <path fill-rule="evenodd" clip-rule="evenodd" d="M170.815 412.707H169V404.708H170.815V412.707ZM173.491 409.248C174.68 408.051 175.348 406.44 175.348 404.708L173.572 404.708C173.572 406.18 172.903 407.531 171.736 408.415L171.032 408.948L173.758 412.708H176L173.491 409.248ZM177.5 410.708C176.948 410.708 176.5 411.155 176.5 411.708C176.5 412.26 176.948 412.708 177.5 412.708C178.052 412.708 178.5 412.26 178.5 411.708C178.5 411.155 178.052 410.708 177.5 410.708Z" fill="#0A0B09"></path>
    </g>
    <rect x="156.5" y="389.5" width="121" height="53" rx="4.5" stroke="#0A2540"></rect>
    </g>
    <path d="M36.869 496H39.377C41.775 496 43.293 494.46 43.293 492.051C43.293 489.642 41.775 488.102 39.377 488.102H36.869V496ZM37.903 495.087V489.015H39.366C41.17 489.015 42.259 490.203 42.259 492.051C42.259 493.888 41.17 495.087 39.377 495.087H37.903ZM47.0369 496.121C48.1809 496.121 49.0499 495.494 49.4019 494.471L48.5329 494.163C48.3569 494.845 47.8069 495.263 47.0369 495.263C46.0359 495.263 45.3429 494.493 45.2879 493.283H49.4459V492.953C49.4459 491.358 48.5989 490.137 46.9929 490.137C45.4309 490.137 44.3419 491.413 44.3419 493.129C44.3419 494.9 45.4419 496.121 47.0369 496.121ZM46.9819 490.984C47.9829 490.984 48.4229 491.71 48.4449 492.524H45.3429C45.5189 491.545 46.1459 490.984 46.9819 490.984ZM55.4433 490.247H54.4533V493.712C54.4533 494.669 53.7273 495.208 53.0123 495.208C52.1653 495.208 51.8133 494.658 51.8133 493.844V490.247H50.8233V494.053C50.8233 495.274 51.5163 496.121 52.7483 496.121C53.5623 496.121 54.1233 495.692 54.4533 495.208V496H55.4433V490.247ZM57.4413 494.625C57.4413 495.725 58.0023 496.055 58.9813 496.055C59.3113 496.055 59.5973 496.022 59.8503 495.967V495.12C59.6193 495.175 59.4543 495.186 59.2233 495.186C58.7173 495.186 58.4203 495.076 58.4203 494.471V491.094H59.7293V490.247H58.4203V488.564H57.4413V490.247H56.5503V491.094H57.4413V494.625ZM60.5876 494.779C61.0276 495.67 62.0726 496.121 63.1176 496.121C64.3496 496.121 65.3506 495.395 65.3506 494.295C65.3506 493.041 64.2176 492.843 63.2276 492.612C62.4246 492.436 61.9186 492.337 61.9186 491.798C61.9186 491.281 62.3586 490.951 63.0186 490.951C63.7446 490.951 64.2836 491.314 64.5806 491.886L65.2846 491.325C64.9436 490.643 64.0966 490.137 63.0626 490.137C61.8416 490.137 60.9506 490.852 60.9506 491.875C60.9506 493.052 61.9406 493.261 62.8866 493.47C63.8326 493.668 64.3826 493.756 64.3826 494.383C64.3826 495.01 63.7886 495.296 63.1176 495.296C62.3696 495.296 61.6656 494.889 61.3576 494.218L60.5876 494.779ZM67.3692 493.129C67.3692 491.809 68.0732 490.995 69.0962 490.995C69.8882 490.995 70.3612 491.512 70.5262 492.216L71.3842 491.787C71.1092 490.83 70.2952 490.137 69.0962 490.137C67.4902 490.137 66.3792 491.347 66.3792 493.129C66.3792 494.9 67.4902 496.121 69.0962 496.121C70.2952 496.121 71.1312 495.395 71.4062 494.438L70.5262 494.031C70.3612 494.746 69.8882 495.252 69.0962 495.252C68.0732 495.252 67.3692 494.438 67.3692 493.129ZM72.69 496H73.68V492.568C73.68 491.611 74.406 491.061 75.121 491.061C75.979 491.061 76.32 491.666 76.32 492.469V496H77.31V492.205C77.31 490.984 76.617 490.137 75.396 490.137C74.582 490.137 74.01 490.555 73.68 491.028V488.102H72.69V496ZM80.089 488.102H79.099V496H80.089V488.102ZM86.0886 494.746V491.776C86.0886 490.72 85.2966 490.137 84.0206 490.137C82.7886 490.137 81.8316 490.72 81.7436 491.941H82.7116C82.7886 491.325 83.2066 491.006 83.9656 491.006C84.6696 491.006 85.1316 491.281 85.1316 491.919V492.271L83.7016 492.557C82.4146 492.81 81.5126 493.294 81.5126 494.438C81.5126 495.472 82.3706 496.099 83.4156 496.099C84.1636 496.099 84.8016 495.824 85.1536 495.406C85.1646 495.637 85.1756 495.835 85.1976 496H86.1766C86.1216 495.637 86.0886 495.175 86.0886 494.746ZM85.1316 494.042C85.1316 494.779 84.3946 495.296 83.5476 495.296C82.9206 495.296 82.5026 494.955 82.5026 494.394C82.5026 493.701 83.0856 493.459 83.9656 493.283L85.1316 493.041V494.042ZM87.8887 496H88.8787V492.568C88.8787 491.611 89.6047 491.061 90.3197 491.061C91.1777 491.061 91.5187 491.666 91.5187 492.469V496H92.5087V492.205C92.5087 490.984 91.8157 490.137 90.5947 490.137C89.7807 490.137 89.2087 490.555 88.8787 491.028V490.247H87.8887V496ZM96.4097 496.121C97.2127 496.121 97.8507 495.736 98.1917 495.164V496H99.1817V488.102H98.1917V491.083C97.8507 490.522 97.2127 490.137 96.4097 490.137C94.8147 490.137 93.9017 491.49 93.9017 493.129C93.9017 494.757 94.8147 496.121 96.4097 496.121ZM98.2137 492.931V493.338C98.2137 494.658 97.3997 495.252 96.5857 495.252C95.5077 495.252 94.9027 494.361 94.9027 493.129C94.9027 491.886 95.5077 491.006 96.5857 491.006C97.3997 491.006 98.2137 491.589 98.2137 492.931Z" fill="#0A2540"></path>
    <path d="M256.885 489.902L260.917 493.934L264.948 489.902" stroke="#727F96" stroke-width="1.38233"></path>
    <rect x="28.4888" y="478.489" width="247.022" height="27.0224" rx="7.51119" stroke="#E7ECF1" stroke-width="0.977623"></rect>
    <path d="M28.869 470H33.863V469.076H29.925V462.102H28.869V470ZM39.3043 468.746V465.776C39.3043 464.72 38.5123 464.137 37.2363 464.137C36.0043 464.137 35.0473 464.72 34.9593 465.941H35.9273C36.0043 465.325 36.4223 465.006 37.1813 465.006C37.8853 465.006 38.3473 465.281 38.3473 465.919V466.271L36.9173 466.557C35.6303 466.81 34.7283 467.294 34.7283 468.438C34.7283 469.472 35.5863 470.099 36.6313 470.099C37.3793 470.099 38.0173 469.824 38.3693 469.406C38.3803 469.637 38.3913 469.835 38.4133 470H39.3923C39.3373 469.637 39.3043 469.175 39.3043 468.746ZM38.3473 468.042C38.3473 468.779 37.6103 469.296 36.7633 469.296C36.1363 469.296 35.7183 468.955 35.7183 468.394C35.7183 467.701 36.3013 467.459 37.1813 467.283L38.3473 467.041V468.042ZM41.1244 470H42.1144V466.568C42.1144 465.611 42.8404 465.061 43.5554 465.061C44.4134 465.061 44.7544 465.666 44.7544 466.469V470H45.7444V466.205C45.7444 464.984 45.0514 464.137 43.8304 464.137C43.0164 464.137 42.4444 464.555 42.1144 465.028V464.247H41.1244V470ZM49.6654 470.121C50.4684 470.121 51.1064 469.736 51.4474 469.164V470H52.4374V462.102H51.4474V465.083C51.1064 464.522 50.4684 464.137 49.6654 464.137C48.0704 464.137 47.1574 465.49 47.1574 467.129C47.1574 468.757 48.0704 470.121 49.6654 470.121ZM51.4694 466.931V467.338C51.4694 468.658 50.6554 469.252 49.8414 469.252C48.7634 469.252 48.1584 468.361 48.1584 467.129C48.1584 465.886 48.7634 465.006 49.8414 465.006C50.6554 465.006 51.4694 465.589 51.4694 466.931ZM53.5789 471.078H54.5909L57.7809 461.882H56.7689L53.5789 471.078ZM60.0396 466.689H61.5686L63.6916 470H64.9016L62.7126 466.634C63.9666 466.425 64.7366 465.655 64.7366 464.39C64.7366 462.883 63.6696 462.102 61.9976 462.102H58.9836V470H60.0396V466.689ZM60.0396 465.776V463.015H61.9426C63.0646 463.015 63.6916 463.499 63.6916 464.39C63.6916 465.281 63.0646 465.776 61.9426 465.776H60.0396ZM68.484 470.121C69.628 470.121 70.497 469.494 70.849 468.471L69.98 468.163C69.804 468.845 69.254 469.263 68.484 469.263C67.483 469.263 66.79 468.493 66.735 467.283H70.893V466.953C70.893 465.358 70.046 464.137 68.44 464.137C66.878 464.137 65.789 465.413 65.789 467.129C65.789 468.9 66.889 470.121 68.484 470.121ZM68.429 464.984C69.43 464.984 69.87 465.71 69.892 466.524H66.79C66.966 465.545 67.593 464.984 68.429 464.984ZM77.2185 469.483V464.247H76.2285V465.094C75.9205 464.533 75.2605 464.137 74.4685 464.137C72.8955 464.137 71.9715 465.435 71.9715 466.997C71.9715 468.57 72.8955 469.868 74.4685 469.868C75.2715 469.868 75.9205 469.472 76.2285 468.911V469.56C76.2285 470.759 75.5575 471.276 74.5455 471.276C73.7425 471.276 73.1485 470.847 72.9615 470.11L72.0375 470.462C72.3565 471.518 73.2805 472.101 74.5455 472.101C76.1075 472.101 77.2185 471.166 77.2185 469.483ZM76.2395 466.909V467.118C76.2395 468.383 75.4695 468.999 74.6445 468.999C73.5995 468.999 72.9615 468.207 72.9615 466.997C72.9615 465.787 73.5995 465.006 74.6445 465.006C75.4695 465.006 76.2395 465.622 76.2395 466.909ZM79.042 463.246H80.12V462.102H79.042V463.246ZM80.076 464.247H79.086V470H80.076V464.247ZM86.8986 467.129C86.8986 465.347 85.7986 464.137 84.2256 464.137C82.6526 464.137 81.5526 465.347 81.5526 467.129C81.5526 468.911 82.6526 470.121 84.2256 470.121C85.7986 470.121 86.8986 468.911 86.8986 467.129ZM82.5536 467.129C82.5536 465.809 83.2136 464.973 84.2256 464.973C85.2376 464.973 85.8976 465.809 85.8976 467.129C85.8976 468.438 85.2376 469.274 84.2256 469.274C83.2136 469.274 82.5536 468.438 82.5536 467.129ZM88.3775 470H89.3675V466.568C89.3675 465.611 90.0935 465.061 90.8085 465.061C91.6665 465.061 92.0075 465.666 92.0075 466.469V470H92.9975V466.205C92.9975 464.984 92.3045 464.137 91.0835 464.137C90.2695 464.137 89.6975 464.555 89.3675 465.028V464.247H88.3775V470Z" fill="#0A2540"></path>
    <path d="M86.8268 284.692C86.8268 287.32 88.4828 289.132 90.7388 289.132C92.9948 289.132 94.6388 287.32 94.6388 284.692C94.6388 282.064 92.9948 280.252 90.7388 280.252C88.4828 280.252 86.8268 282.064 86.8268 284.692ZM93.4988 284.692C93.4988 286.732 92.3588 288.112 90.7388 288.112C89.1188 288.112 87.9788 286.732 87.9788 284.692C87.9788 282.652 89.1188 281.272 90.7388 281.272C92.3588 281.272 93.4988 282.652 93.4988 284.692ZM98.2938 289.132C99.1698 289.132 99.8658 288.712 100.238 288.088V289H101.318V280.384H100.238V283.636C99.8658 283.024 99.1698 282.604 98.2938 282.604C96.5538 282.604 95.5578 284.08 95.5578 285.868C95.5578 287.644 96.5538 289.132 98.2938 289.132ZM100.262 285.652V286.096C100.262 287.536 99.3738 288.184 98.4858 288.184C97.3098 288.184 96.6498 287.212 96.6498 285.868C96.6498 284.512 97.3098 283.552 98.4858 283.552C99.3738 283.552 100.262 284.188 100.262 285.652ZM105.611 289.132C106.859 289.132 107.807 288.448 108.191 287.332L107.243 286.996C107.051 287.74 106.451 288.196 105.611 288.196C104.519 288.196 103.763 287.356 103.703 286.036H108.239V285.676C108.239 283.936 107.315 282.604 105.563 282.604C103.859 282.604 102.671 283.996 102.671 285.868C102.671 287.8 103.871 289.132 105.611 289.132ZM105.551 283.528C106.643 283.528 107.123 284.32 107.147 285.208H103.763C103.955 284.14 104.639 283.528 105.551 283.528ZM112.836 282.7C112.728 282.688 112.572 282.676 112.404 282.676C111.552 282.676 110.94 283.156 110.664 283.792V282.724H109.584V289H110.664V285.568C110.664 284.464 111.396 283.744 112.308 283.744C112.512 283.744 112.656 283.756 112.836 283.792V282.7ZM117.636 285.244C117.636 284.224 118.404 283.612 119.124 283.612C120.012 283.612 120.372 284.272 120.372 285.148V289H121.452V285.244C121.452 284.224 122.22 283.612 122.94 283.612C123.828 283.612 124.188 284.272 124.188 285.148V289H125.268V284.86C125.268 283.528 124.488 282.604 123.192 282.604C122.208 282.604 121.536 283.156 121.188 283.672C120.876 283.024 120.288 282.604 119.448 282.604C118.572 282.604 117.972 283.06 117.636 283.576V282.724H116.556V289H117.636V285.244ZM126.961 281.632H128.137V280.384H126.961V281.632ZM128.089 282.724H127.009V289H128.089V282.724ZM130.06 287.5C130.06 288.7 130.672 289.06 131.74 289.06C132.1 289.06 132.412 289.024 132.688 288.964V288.04C132.436 288.1 132.256 288.112 132.004 288.112C131.452 288.112 131.128 287.992 131.128 287.332V283.648H132.556V282.724H131.128V280.888H130.06V282.724H129.088V283.648H130.06V287.5ZM137.702 280.384H136.55V289H137.702V286.18L138.83 284.968L141.902 289H143.258L139.598 284.14L143.09 280.384H141.71L137.702 284.74V280.384ZM148.701 287.632V284.392C148.701 283.24 147.837 282.604 146.445 282.604C145.101 282.604 144.057 283.24 143.961 284.572H145.017C145.101 283.9 145.557 283.552 146.385 283.552C147.153 283.552 147.657 283.852 147.657 284.548V284.932L146.097 285.244C144.693 285.52 143.709 286.048 143.709 287.296C143.709 288.424 144.645 289.108 145.785 289.108C146.601 289.108 147.297 288.808 147.681 288.352C147.693 288.604 147.705 288.82 147.729 289H148.797C148.737 288.604 148.701 288.1 148.701 287.632ZM147.657 286.864C147.657 287.668 146.853 288.232 145.929 288.232C145.245 288.232 144.789 287.86 144.789 287.248C144.789 286.492 145.425 286.228 146.385 286.036L147.657 285.772V286.864ZM153.699 282.7C153.591 282.688 153.435 282.676 153.267 282.676C152.415 282.676 151.803 283.156 151.527 283.792V282.724H150.447V289H151.527V285.568C151.527 284.464 152.259 283.744 153.171 283.744C153.375 283.744 153.519 283.756 153.699 283.792V282.7ZM155.127 287.5C155.127 288.7 155.739 289.06 156.807 289.06C157.167 289.06 157.479 289.024 157.755 288.964V288.04C157.503 288.1 157.323 288.112 157.071 288.112C156.519 288.112 156.195 287.992 156.195 287.332V283.648H157.623V282.724H156.195V280.888H155.127V282.724H154.155V283.648H155.127V287.5ZM161.51 289.132C162.758 289.132 163.706 288.448 164.09 287.332L163.142 286.996C162.95 287.74 162.35 288.196 161.51 288.196C160.418 288.196 159.662 287.356 159.602 286.036H164.138V285.676C164.138 283.936 163.214 282.604 161.462 282.604C159.758 282.604 158.57 283.996 158.57 285.868C158.57 287.8 159.77 289.132 161.51 289.132ZM161.45 283.528C162.542 283.528 163.022 284.32 163.046 285.208H159.662C159.854 284.14 160.538 283.528 161.45 283.528ZM171.037 289.132C172.777 289.132 173.773 287.644 173.773 285.868C173.773 284.08 172.777 282.604 171.037 282.604C170.161 282.604 169.465 283.024 169.093 283.636V280.384H168.013V289H169.093V288.088C169.465 288.712 170.161 289.132 171.037 289.132ZM169.069 285.652C169.069 284.188 169.957 283.552 170.845 283.552C172.021 283.552 172.681 284.512 172.681 285.868C172.681 287.212 172.021 288.184 170.845 288.184C169.957 288.184 169.069 287.536 169.069 286.096V285.652ZM177.646 289.132C178.894 289.132 179.842 288.448 180.226 287.332L179.278 286.996C179.086 287.74 178.486 288.196 177.646 288.196C176.554 288.196 175.798 287.356 175.738 286.036H180.274V285.676C180.274 283.936 179.35 282.604 177.598 282.604C175.894 282.604 174.706 283.996 174.706 285.868C174.706 287.8 175.906 289.132 177.646 289.132ZM177.586 283.528C178.678 283.528 179.158 284.32 179.182 285.208H175.798C175.99 284.14 176.674 283.528 177.586 283.528ZM186.038 288.076H182.45L186.002 283.552V282.724H181.142V283.648H184.718L181.094 288.184V289H186.038V288.076ZM191.862 287.632V284.392C191.862 283.24 190.998 282.604 189.605 282.604C188.262 282.604 187.218 283.24 187.122 284.572H188.178C188.262 283.9 188.718 283.552 189.546 283.552C190.314 283.552 190.818 283.852 190.818 284.548V284.932L189.258 285.244C187.854 285.52 186.87 286.048 186.87 287.296C186.87 288.424 187.806 289.108 188.946 289.108C189.762 289.108 190.458 288.808 190.842 288.352C190.854 288.604 190.866 288.82 190.89 289H191.958C191.898 288.604 191.862 288.1 191.862 287.632ZM190.818 286.864C190.818 287.668 190.014 288.232 189.09 288.232C188.406 288.232 187.95 287.86 187.95 287.248C187.95 286.492 188.586 286.228 189.546 286.036L190.818 285.772V286.864ZM193.607 289H194.687V285.256C194.687 284.212 195.479 283.612 196.259 283.612C197.195 283.612 197.567 284.272 197.567 285.148V289H198.647V284.86C198.647 283.528 197.891 282.604 196.559 282.604C195.671 282.604 195.047 283.06 194.687 283.576V280.384H193.607V289ZM201.46 280.384H200.38V289H201.46V280.384ZM205.771 289.132C207.019 289.132 207.967 288.448 208.351 287.332L207.403 286.996C207.211 287.74 206.611 288.196 205.771 288.196C204.679 288.196 203.923 287.356 203.863 286.036H208.399V285.676C208.399 283.936 207.475 282.604 205.723 282.604C204.019 282.604 202.831 283.996 202.831 285.868C202.831 287.8 204.031 289.132 205.771 289.132ZM205.711 283.528C206.803 283.528 207.283 284.32 207.307 285.208H203.923C204.115 284.14 204.799 283.528 205.711 283.528ZM209.744 289H210.824V285.256C210.824 284.212 211.616 283.612 212.396 283.612C213.332 283.612 213.704 284.272 213.704 285.148V289H214.784V284.86C214.784 283.528 214.028 282.604 212.696 282.604C211.808 282.604 211.184 283.06 210.824 283.576V282.724H209.744V289Z" fill="#727F96"></path>
    <line opacity="0.2" x1="28" y1="284.339" x2="78" y2="284.339" stroke="#0A2540" stroke-width="1.32191"></line>
    <line opacity="0.2" x1="225" y1="284.339" x2="275" y2="284.339" stroke="#0A2540" stroke-width="1.32191"></line>
    <defs>
    <clipPath id="Sticky-clip0_3869_234347">
    <rect width="250" height="72" fill="white" transform="translate(28 371)"></rect>
    </clipPath>
    <clipPath id="Sticky-clip1_3869_234347">
    <rect width="16" height="16" fill="white" transform="translate(165 400.708)"></rect>
    </clipPath>
    </defs>
  </svg>