<svg data-js-target-list="HomepageFrontdoorPaymentsAnimation.screens" width="100%" height="auto" viewBox="0 0 303 617" fill="none" xmlns="http://www.w3.org/2000/svg">
    <path d="M37.781 337.746H38.859V336.602H37.781V337.746ZM37.825 344.797C37.825 345.38 37.605 345.655 37.033 345.655C36.868 345.655 36.769 345.644 36.648 345.622V346.48C36.824 346.502 36.967 346.513 37.198 346.513C38.177 346.513 38.815 345.996 38.815 344.973V338.747H37.825V344.797ZM44.6146 343.246V340.276C44.6146 339.22 43.8226 338.637 42.5466 338.637C41.3146 338.637 40.3576 339.22 40.2696 340.441H41.2376C41.3146 339.825 41.7326 339.506 42.4916 339.506C43.1956 339.506 43.6576 339.781 43.6576 340.419V340.771L42.2276 341.057C40.9406 341.31 40.0386 341.794 40.0386 342.938C40.0386 343.972 40.8966 344.599 41.9416 344.599C42.6896 344.599 43.3276 344.324 43.6796 343.906C43.6906 344.137 43.7016 344.335 43.7236 344.5H44.7026C44.6476 344.137 44.6146 343.675 44.6146 343.246ZM43.6576 342.542C43.6576 343.279 42.9206 343.796 42.0736 343.796C41.4466 343.796 41.0286 343.455 41.0286 342.894C41.0286 342.201 41.6116 341.959 42.4916 341.783L43.6576 341.541V342.542ZM46.2146 344.5H47.2046V341.068C47.2046 340.111 47.9306 339.561 48.6456 339.561C49.5036 339.561 49.8446 340.166 49.8446 340.969V344.5H50.8346V340.705C50.8346 339.484 50.1416 338.637 48.9206 338.637C48.1066 338.637 47.5346 339.055 47.2046 339.528V338.747H46.2146V344.5ZM54.7226 344.621C55.8666 344.621 56.7356 343.994 57.0876 342.971L56.2186 342.663C56.0426 343.345 55.4926 343.763 54.7226 343.763C53.7216 343.763 53.0286 342.993 52.9736 341.783H57.1316V341.453C57.1316 339.858 56.2846 338.637 54.6786 338.637C53.1166 338.637 52.0276 339.913 52.0276 341.629C52.0276 343.4 53.1276 344.621 54.7226 344.621ZM54.6676 339.484C55.6686 339.484 56.1086 340.21 56.1306 341.024H53.0286C53.2046 340.045 53.8316 339.484 54.6676 339.484ZM58.0149 344.5H59.2689V343.202H58.0149V344.5ZM62.4741 344.621C63.2771 344.621 63.9151 344.236 64.2561 343.664V344.5H65.2461V336.602H64.2561V339.583C63.9151 339.022 63.2771 338.637 62.4741 338.637C60.8791 338.637 59.9661 339.99 59.9661 341.629C59.9661 343.257 60.8791 344.621 62.4741 344.621ZM64.2781 341.431V341.838C64.2781 343.158 63.4641 343.752 62.6501 343.752C61.5721 343.752 60.9671 342.861 60.9671 341.629C60.9671 340.386 61.5721 339.506 62.6501 339.506C63.4641 339.506 64.2781 340.089 64.2781 341.431ZM66.8386 337.746H67.9166V336.602H66.8386V337.746ZM67.8726 338.747H66.8826V344.5H67.8726V338.747ZM73.6722 343.246V340.276C73.6722 339.22 72.8802 338.637 71.6042 338.637C70.3722 338.637 69.4152 339.22 69.3272 340.441H70.2952C70.3722 339.825 70.7902 339.506 71.5492 339.506C72.2532 339.506 72.7152 339.781 72.7152 340.419V340.771L71.2852 341.057C69.9982 341.31 69.0962 341.794 69.0962 342.938C69.0962 343.972 69.9542 344.599 70.9992 344.599C71.7472 344.599 72.3852 344.324 72.7372 343.906C72.7482 344.137 72.7592 344.335 72.7812 344.5H73.7602C73.7052 344.137 73.6722 343.675 73.6722 343.246ZM72.7152 342.542C72.7152 343.279 71.9782 343.796 71.1312 343.796C70.5042 343.796 70.0862 343.455 70.0862 342.894C70.0862 342.201 70.6692 341.959 71.5492 341.783L72.7152 341.541V342.542ZM79.4303 343.653H76.1413L79.3973 339.506V338.747H74.9423V339.594H78.2203L74.8983 343.752V344.5H79.4303V343.653ZM86.8719 343.312C86.4759 343.312 86.2669 343.103 86.3659 342.509L86.9049 339.55H86.0139L85.8709 340.243C85.7279 339.847 85.2879 339.462 84.5839 339.462C83.3409 339.462 82.3729 340.727 82.3729 342.201C82.3729 343.389 83.0989 344.082 84.0669 344.082C84.6719 344.082 85.2329 343.796 85.5299 343.312C85.6839 343.774 86.0909 344.049 86.7729 344.049C87.8839 344.049 89.0279 343.048 89.0279 341.09C89.0279 338.824 87.2129 337.361 84.9249 337.361C82.2189 337.361 80.1619 339.44 80.1619 342.047C80.1619 344.72 82.1639 346.293 84.7269 346.293C85.8159 346.293 86.8499 346.04 87.6969 345.424L87.2899 344.764C86.5309 345.281 85.7059 345.501 84.7159 345.501C82.5929 345.501 81.0419 344.225 81.0419 342.058C81.0419 339.825 82.7359 338.131 84.8919 338.131C86.8059 338.131 88.1809 339.275 88.1809 341.145C88.1809 342.564 87.5209 343.312 86.8719 343.312ZM85.4859 342.003C85.3319 342.773 84.8919 343.279 84.2869 343.279C83.7039 343.279 83.3629 342.861 83.3629 342.179C83.3629 341.134 83.9239 340.254 84.7489 340.254C85.2989 340.254 85.6069 340.683 85.6069 341.167C85.6069 341.288 85.5959 341.431 85.4859 342.003ZM92.5888 344.621C93.7328 344.621 94.6018 343.994 94.9538 342.971L94.0848 342.663C93.9088 343.345 93.3588 343.763 92.5888 343.763C91.5878 343.763 90.8948 342.993 90.8398 341.783H94.9978V341.453C94.9978 339.858 94.1508 338.637 92.5448 338.637C90.9828 338.637 89.8938 339.913 89.8938 341.629C89.8938 343.4 90.9938 344.621 92.5888 344.621ZM92.5338 339.484C93.5348 339.484 93.9748 340.21 93.9968 341.024H90.8948C91.0708 340.045 91.6978 339.484 92.5338 339.484ZM99.5359 344.5H100.658L98.5459 341.497L100.471 338.747H99.3819L97.9739 340.76L96.5879 338.747H95.4549L97.3799 341.497L95.2789 344.5H96.3569L97.9409 342.234L99.5359 344.5ZM105.619 343.246V340.276C105.619 339.22 104.827 338.637 103.551 338.637C102.319 338.637 101.362 339.22 101.274 340.441H102.242C102.319 339.825 102.737 339.506 103.496 339.506C104.2 339.506 104.662 339.781 104.662 340.419V340.771L103.232 341.057C101.945 341.31 101.043 341.794 101.043 342.938C101.043 343.972 101.901 344.599 102.946 344.599C103.694 344.599 104.332 344.324 104.684 343.906C104.695 344.137 104.706 344.335 104.728 344.5H105.707C105.652 344.137 105.619 343.675 105.619 343.246ZM104.662 342.542C104.662 343.279 103.925 343.796 103.078 343.796C102.451 343.796 102.033 343.455 102.033 342.894C102.033 342.201 102.616 341.959 103.496 341.783L104.662 341.541V342.542ZM108.21 341.057C108.21 340.122 108.914 339.561 109.574 339.561C110.388 339.561 110.718 340.166 110.718 340.969V344.5H111.708V341.057C111.708 340.122 112.412 339.561 113.072 339.561C113.886 339.561 114.216 340.166 114.216 340.969V344.5H115.206V340.705C115.206 339.484 114.491 338.637 113.303 338.637C112.401 338.637 111.785 339.143 111.466 339.616C111.18 339.022 110.641 338.637 109.871 338.637C109.068 338.637 108.518 339.055 108.21 339.528V338.747H107.22V344.5H108.21V341.057ZM119.574 344.621C121.169 344.621 122.082 343.257 122.082 341.629C122.082 339.99 121.169 338.637 119.574 338.637C118.771 338.637 118.133 339.022 117.792 339.583V338.747H116.802V346.48H117.792V343.664C118.133 344.236 118.771 344.621 119.574 344.621ZM117.77 341.431C117.77 340.089 118.584 339.506 119.398 339.506C120.476 339.506 121.081 340.386 121.081 341.629C121.081 342.861 120.476 343.752 119.398 343.752C118.584 343.752 117.77 343.158 117.77 341.838V341.431ZM124.323 336.602H123.333V344.5H124.323V336.602ZM128.274 344.621C129.418 344.621 130.287 343.994 130.639 342.971L129.77 342.663C129.594 343.345 129.044 343.763 128.274 343.763C127.273 343.763 126.58 342.993 126.525 341.783H130.683V341.453C130.683 339.858 129.836 338.637 128.23 338.637C126.668 338.637 125.579 339.913 125.579 341.629C125.579 343.4 126.679 344.621 128.274 344.621ZM128.219 339.484C129.22 339.484 129.66 340.21 129.682 341.024H126.58C126.756 340.045 127.383 339.484 128.219 339.484ZM131.567 344.5H132.821V343.202H131.567V344.5ZM134.508 341.629C134.508 340.309 135.212 339.495 136.235 339.495C137.027 339.495 137.5 340.012 137.665 340.716L138.523 340.287C138.248 339.33 137.434 338.637 136.235 338.637C134.629 338.637 133.518 339.847 133.518 341.629C133.518 343.4 134.629 344.621 136.235 344.621C137.434 344.621 138.27 343.895 138.545 342.938L137.665 342.531C137.5 343.246 137.027 343.752 136.235 343.752C135.212 343.752 134.508 342.938 134.508 341.629ZM144.579 341.629C144.579 339.847 143.479 338.637 141.906 338.637C140.333 338.637 139.233 339.847 139.233 341.629C139.233 343.411 140.333 344.621 141.906 344.621C143.479 344.621 144.579 343.411 144.579 341.629ZM140.234 341.629C140.234 340.309 140.894 339.473 141.906 339.473C142.918 339.473 143.578 340.309 143.578 341.629C143.578 342.938 142.918 343.774 141.906 343.774C140.894 343.774 140.234 342.938 140.234 341.629ZM146.828 341.057C146.828 340.122 147.532 339.561 148.192 339.561C149.006 339.561 149.336 340.166 149.336 340.969V344.5H150.326V341.057C150.326 340.122 151.03 339.561 151.69 339.561C152.504 339.561 152.834 340.166 152.834 340.969V344.5H153.824V340.705C153.824 339.484 153.109 338.637 151.921 338.637C151.019 338.637 150.403 339.143 150.084 339.616C149.798 339.022 149.259 338.637 148.489 338.637C147.686 338.637 147.136 339.055 146.828 339.528V338.747H145.838V344.5H146.828V341.057Z" fill="#2E3A55"></path>
    <rect x="28.4888" y="327.489" width="247.022" height="27.0224" rx="7.51119" stroke="#E7ECF1" stroke-width="0.977623"></rect>
    <path d="M28.869 311.102V319H34.028V318.076H29.914V315.381H33.401V314.457H29.914V312.026H34.028V311.102H28.869ZM36.4481 315.557C36.4481 314.622 37.1521 314.061 37.8121 314.061C38.6261 314.061 38.9561 314.666 38.9561 315.469V319H39.9461V315.557C39.9461 314.622 40.6501 314.061 41.3101 314.061C42.1241 314.061 42.4541 314.666 42.4541 315.469V319H43.4441V315.205C43.4441 313.984 42.7291 313.137 41.5411 313.137C40.6391 313.137 40.0231 313.643 39.7041 314.116C39.4181 313.522 38.8791 313.137 38.1091 313.137C37.3061 313.137 36.7561 313.555 36.4481 314.028V313.247H35.4581V319H36.4481V315.557ZM49.4071 317.746V314.776C49.4071 313.72 48.6151 313.137 47.3391 313.137C46.1071 313.137 45.1501 313.72 45.0621 314.941H46.0301C46.1071 314.325 46.5251 314.006 47.2841 314.006C47.9881 314.006 48.4501 314.281 48.4501 314.919V315.271L47.0201 315.557C45.7331 315.81 44.8311 316.294 44.8311 317.438C44.8311 318.472 45.6891 319.099 46.7341 319.099C47.4821 319.099 48.1201 318.824 48.4721 318.406C48.4831 318.637 48.4941 318.835 48.5161 319H49.4951C49.4401 318.637 49.4071 318.175 49.4071 317.746ZM48.4501 317.042C48.4501 317.779 47.7131 318.296 46.8661 318.296C46.2391 318.296 45.8211 317.955 45.8211 317.394C45.8211 316.701 46.4041 316.459 47.2841 316.283L48.4501 316.041V317.042ZM51.1832 312.246H52.2612V311.102H51.1832V312.246ZM52.2172 313.247H51.2272V319H52.2172V313.247ZM55.0798 311.102H54.0898V319H55.0798V311.102Z" fill="#0A2540"></path>
    <path d="M40.961 408V405.943H42.501V405.063H40.972V400.102H39.63L36.165 405.118V405.943H39.982V408H40.961ZM37.243 405.063L39.971 401.114V405.063H37.243ZM42.8838 407.131V408H48.3178V407.076H44.3248L46.1068 405.624C47.2398 404.711 48.1638 403.787 48.1638 402.445C48.1638 400.993 47.1518 399.981 45.5568 399.981C44.1048 399.981 42.9498 401.048 42.9498 402.456C42.9498 402.764 43.0048 403.028 43.1258 403.369H44.1158C44.0058 403.094 43.9398 402.797 43.9398 402.511C43.9398 401.609 44.5888 400.883 45.5348 400.883C46.5028 400.883 47.1298 401.543 47.1298 402.511C47.1298 403.545 46.2938 404.304 45.2158 405.195L42.8838 407.131ZM53.4434 408V405.943H54.9834V405.063H53.4544V400.102H52.1124L48.6474 405.118V405.943H52.4644V408H53.4434ZM49.7254 405.063L52.4534 401.114V405.063H49.7254ZM55.3662 407.131V408H60.8002V407.076H56.8072L58.5892 405.624C59.7222 404.711 60.6462 403.787 60.6462 402.445C60.6462 400.993 59.6342 399.981 58.0392 399.981C56.5872 399.981 55.4322 401.048 55.4322 402.456C55.4322 402.764 55.4872 403.028 55.6082 403.369H56.5982C56.4882 403.094 56.4222 402.797 56.4222 402.511C56.4222 401.609 57.0712 400.883 58.0172 400.883C58.9852 400.883 59.6122 401.543 59.6122 402.511C59.6122 403.545 58.7762 404.304 57.6982 405.195L55.3662 407.131ZM68.418 408V405.943H69.958V405.063H68.429V400.102H67.087L63.622 405.118V405.943H67.439V408H68.418ZM64.7 405.063L67.428 401.114V405.063H64.7ZM70.3408 407.131V408H75.7748V407.076H71.7818L73.5638 405.624C74.6968 404.711 75.6208 403.787 75.6208 402.445C75.6208 400.993 74.6088 399.981 73.0138 399.981C71.5618 399.981 70.4068 401.048 70.4068 402.456C70.4068 402.764 70.4618 403.028 70.5828 403.369H71.5728C71.4628 403.094 71.3968 402.797 71.3968 402.511C71.3968 401.609 72.0458 400.883 72.9918 400.883C73.9598 400.883 74.5868 401.543 74.5868 402.511C74.5868 403.545 73.7508 404.304 72.6728 405.195L70.3408 407.131ZM80.9005 408V405.943H82.4405V405.063H80.9115V400.102H79.5695L76.1045 405.118V405.943H79.9215V408H80.9005ZM77.1825 405.063L79.9105 401.114V405.063H77.1825ZM82.8232 407.131V408H88.2572V407.076H84.2642L86.0462 405.624C87.1792 404.711 88.1032 403.787 88.1032 402.445C88.1032 400.993 87.0912 399.981 85.4962 399.981C84.0442 399.981 82.8892 401.048 82.8892 402.456C82.8892 402.764 82.9442 403.028 83.0652 403.369H84.0552C83.9452 403.094 83.8792 402.797 83.8792 402.511C83.8792 401.609 84.5282 400.883 85.4742 400.883C86.4422 400.883 87.0692 401.543 87.0692 402.511C87.0692 403.545 86.2332 404.304 85.1552 405.195L82.8232 407.131ZM95.8751 408V405.943H97.4151V405.063H95.8861V400.102H94.5441L91.0791 405.118V405.943H94.8961V408H95.8751ZM92.1571 405.063L94.8851 401.114V405.063H92.1571ZM97.7978 407.131V408H103.232V407.076H99.2388L101.021 405.624C102.154 404.711 103.078 403.787 103.078 402.445C103.078 400.993 102.066 399.981 100.471 399.981C99.0188 399.981 97.8638 401.048 97.8638 402.456C97.8638 402.764 97.9188 403.028 98.0398 403.369H99.0298C98.9198 403.094 98.8538 402.797 98.8538 402.511C98.8538 401.609 99.5028 400.883 100.449 400.883C101.417 400.883 102.044 401.543 102.044 402.511C102.044 403.545 101.208 404.304 100.13 405.195L97.7978 407.131ZM108.357 408V405.943H109.897V405.063H108.368V400.102H107.026L103.561 405.118V405.943H107.378V408H108.357ZM104.639 405.063L107.367 401.114V405.063H104.639ZM110.28 407.131V408H115.714V407.076H111.721L113.503 405.624C114.636 404.711 115.56 403.787 115.56 402.445C115.56 400.993 114.548 399.981 112.953 399.981C111.501 399.981 110.346 401.048 110.346 402.456C110.346 402.764 110.401 403.028 110.522 403.369H111.512C111.402 403.094 111.336 402.797 111.336 402.511C111.336 401.609 111.985 400.883 112.931 400.883C113.899 400.883 114.526 401.543 114.526 402.511C114.526 403.545 113.69 404.304 112.612 405.195L110.28 407.131ZM123.332 408V405.943H124.872V405.063H123.343V400.102H122.001L118.536 405.118V405.943H122.353V408H123.332ZM119.614 405.063L122.342 401.114V405.063H119.614ZM125.255 407.131V408H130.689V407.076H126.696L128.478 405.624C129.611 404.711 130.535 403.787 130.535 402.445C130.535 400.993 129.523 399.981 127.928 399.981C126.476 399.981 125.321 401.048 125.321 402.456C125.321 402.764 125.376 403.028 125.497 403.369H126.487C126.377 403.094 126.311 402.797 126.311 402.511C126.311 401.609 126.96 400.883 127.906 400.883C128.874 400.883 129.501 401.543 129.501 402.511C129.501 403.545 128.665 404.304 127.587 405.195L125.255 407.131ZM135.815 408V405.943H137.355V405.063H135.826V400.102H134.484L131.019 405.118V405.943H134.836V408H135.815ZM132.097 405.063L134.825 401.114V405.063H132.097ZM137.737 407.131V408H143.171V407.076H139.178L140.96 405.624C142.093 404.711 143.017 403.787 143.017 402.445C143.017 400.993 142.005 399.981 140.41 399.981C138.958 399.981 137.803 401.048 137.803 402.456C137.803 402.764 137.858 403.028 137.979 403.369H138.969C138.859 403.094 138.793 402.797 138.793 402.511C138.793 401.609 139.442 400.883 140.388 400.883C141.356 400.883 141.983 401.543 141.983 402.511C141.983 403.545 141.147 404.304 140.069 405.195L137.737 407.131Z" fill="#2E3A55"></path>
    <path d="M246.043 396.25H265.957C266.945 396.25 267.75 397.06 267.75 398.065V409.935C267.75 410.94 266.945 411.75 265.957 411.75H246.043C245.055 411.75 244.25 410.94 244.25 409.935V398.065C244.25 397.06 245.055 396.25 246.043 396.25Z" fill="white" stroke="#E7ECF1" stroke-width="0.5"></path>
    <path d="M246.592 401.847C246.057 401.551 245.448 401.313 244.766 401.148L244.795 401.019H247.59C247.969 401.032 248.276 401.147 248.376 401.554L248.984 404.482L249.17 405.363L250.871 401.019H252.708L249.977 407.383H248.14L246.592 401.847ZM254.06 407.39H252.322L253.409 401.019H255.146L254.06 407.39ZM260.358 401.175L260.121 402.55L259.964 402.483C259.65 402.354 259.235 402.225 258.67 402.239C257.984 402.239 257.676 402.517 257.669 402.788C257.669 403.086 258.041 403.283 258.649 403.574C259.65 404.028 260.114 404.584 260.107 405.309C260.093 406.631 258.907 407.485 257.084 407.485C256.304 407.478 255.554 407.322 255.146 407.146L255.389 405.716L255.618 405.818C256.183 406.055 256.554 406.156 257.248 406.156C257.748 406.156 258.285 405.96 258.291 405.533C258.291 405.255 258.063 405.051 257.391 404.74C256.733 404.435 255.854 403.926 255.868 403.011C255.875 401.771 257.084 400.903 258.799 400.903C259.471 400.903 260.015 401.046 260.358 401.175ZM262.667 405.133H264.111C264.039 404.814 263.71 403.289 263.71 403.289L263.589 402.74C263.503 402.978 263.353 403.364 263.36 403.35C263.36 403.35 262.81 404.767 262.667 405.133ZM264.811 401.019L266.213 407.39H264.604C264.604 407.39 264.447 406.658 264.397 406.434H262.166C262.102 406.604 261.802 407.39 261.802 407.39H259.979L262.559 401.547C262.738 401.134 263.053 401.019 263.467 401.019H264.811Z" fill="#171E6C"></path>
    <path d="M36 390.489H268C272.148 390.489 275.511 393.852 275.511 398V417.511H28.4888V398C28.4888 393.852 31.8517 390.489 36 390.489Z" stroke="#E7ECF1" stroke-width="0.977623"></path>
    <path d="M29.463 378.051C29.463 376.181 30.497 374.916 31.96 374.916C32.983 374.916 33.72 375.51 34.006 376.511L35.007 376.181C34.545 374.817 33.467 373.981 31.96 373.981C29.914 373.981 28.407 375.642 28.407 378.051C28.407 380.46 29.914 382.121 31.96 382.121C33.467 382.121 34.545 381.285 35.007 379.921L34.006 379.591C33.72 380.592 32.983 381.186 31.96 381.186C30.497 381.186 29.463 379.921 29.463 378.051ZM40.443 380.746V377.776C40.443 376.72 39.651 376.137 38.375 376.137C37.143 376.137 36.186 376.72 36.098 377.941H37.066C37.143 377.325 37.561 377.006 38.32 377.006C39.024 377.006 39.486 377.281 39.486 377.919V378.271L38.056 378.557C36.769 378.81 35.867 379.294 35.867 380.438C35.867 381.472 36.725 382.099 37.77 382.099C38.518 382.099 39.156 381.824 39.508 381.406C39.519 381.637 39.53 381.835 39.552 382H40.531C40.476 381.637 40.443 381.175 40.443 380.746ZM39.486 380.042C39.486 380.779 38.749 381.296 37.902 381.296C37.275 381.296 36.857 380.955 36.857 380.394C36.857 379.701 37.44 379.459 38.32 379.283L39.486 379.041V380.042ZM45.244 376.225C45.145 376.214 45.002 376.203 44.848 376.203C44.067 376.203 43.506 376.643 43.253 377.226V376.247H42.263V382H43.253V378.854C43.253 377.842 43.924 377.182 44.76 377.182C44.947 377.182 45.079 377.193 45.244 377.226V376.225ZM48.473 382.121C49.276 382.121 49.914 381.736 50.255 381.164V382H51.245V374.102H50.255V377.083C49.914 376.522 49.276 376.137 48.473 376.137C46.878 376.137 45.965 377.49 45.965 379.129C45.965 380.757 46.878 382.121 48.473 382.121ZM50.277 378.931V379.338C50.277 380.658 49.463 381.252 48.649 381.252C47.571 381.252 46.966 380.361 46.966 379.129C46.966 377.886 47.571 377.006 48.649 377.006C49.463 377.006 50.277 377.589 50.277 378.931ZM55.5978 375.246H56.6758V374.102H55.5978V375.246ZM56.6318 376.247H55.6418V382H56.6318V376.247ZM58.5044 382H59.4944V378.568C59.4944 377.611 60.2204 377.061 60.9354 377.061C61.7934 377.061 62.1344 377.666 62.1344 378.469V382H63.1244V378.205C63.1244 376.984 62.4314 376.137 61.2104 376.137C60.3964 376.137 59.8244 376.555 59.4944 377.028V376.247H58.5044V382ZM67.4414 374.003C67.2214 373.992 67.1114 373.981 66.9134 373.981C65.7364 373.981 65.1204 374.663 65.1204 375.785V376.247H64.2514V377.094H65.1204V382H66.1104V377.094H67.3864V376.247H66.1104V375.851C66.1104 375.114 66.4294 374.861 67.0124 374.861C67.1774 374.861 67.2764 374.861 67.4414 374.883V374.003ZM73.4442 379.129C73.4442 377.347 72.3442 376.137 70.7712 376.137C69.1982 376.137 68.0982 377.347 68.0982 379.129C68.0982 380.911 69.1982 382.121 70.7712 382.121C72.3442 382.121 73.4442 380.911 73.4442 379.129ZM69.0992 379.129C69.0992 377.809 69.7592 376.973 70.7712 376.973C71.7832 376.973 72.4432 377.809 72.4432 379.129C72.4432 380.438 71.7832 381.274 70.7712 381.274C69.7592 381.274 69.0992 380.438 69.0992 379.129ZM77.9042 376.225C77.8052 376.214 77.6622 376.203 77.5082 376.203C76.7272 376.203 76.1662 376.643 75.9132 377.226V376.247H74.9232V382H75.9132V378.854C75.9132 377.842 76.5842 377.182 77.4202 377.182C77.6072 377.182 77.7392 377.193 77.9042 377.226V376.225ZM80.2045 378.557C80.2045 377.622 80.9085 377.061 81.5685 377.061C82.3825 377.061 82.7125 377.666 82.7125 378.469V382H83.7025V378.557C83.7025 377.622 84.4065 377.061 85.0665 377.061C85.8805 377.061 86.2105 377.666 86.2105 378.469V382H87.2005V378.205C87.2005 376.984 86.4855 376.137 85.2975 376.137C84.3955 376.137 83.7795 376.643 83.4605 377.116C83.1745 376.522 82.6355 376.137 81.8655 376.137C81.0625 376.137 80.5125 376.555 80.2045 377.028V376.247H79.2145V382H80.2045V378.557ZM93.1635 380.746V377.776C93.1635 376.72 92.3715 376.137 91.0955 376.137C89.8635 376.137 88.9065 376.72 88.8185 377.941H89.7865C89.8635 377.325 90.2815 377.006 91.0405 377.006C91.7445 377.006 92.2065 377.281 92.2065 377.919V378.271L90.7765 378.557C89.4895 378.81 88.5875 379.294 88.5875 380.438C88.5875 381.472 89.4455 382.099 90.4905 382.099C91.2385 382.099 91.8765 381.824 92.2285 381.406C92.2395 381.637 92.2505 381.835 92.2725 382H93.2515C93.1965 381.637 93.1635 381.175 93.1635 380.746ZM92.2065 380.042C92.2065 380.779 91.4695 381.296 90.6225 381.296C89.9955 381.296 89.5775 380.955 89.5775 380.394C89.5775 379.701 90.1605 379.459 91.0405 379.283L92.2065 379.041V380.042ZM95.1376 380.625C95.1376 381.725 95.6986 382.055 96.6776 382.055C97.0076 382.055 97.2936 382.022 97.5466 381.967V381.12C97.3156 381.175 97.1506 381.186 96.9196 381.186C96.4136 381.186 96.1166 381.076 96.1166 380.471V377.094H97.4256V376.247H96.1166V374.564H95.1376V376.247H94.2466V377.094H95.1376V380.625ZM98.8978 375.246H99.9758V374.102H98.8978V375.246ZM99.9318 376.247H98.9418V382H99.9318V376.247ZM106.754 379.129C106.754 377.347 105.654 376.137 104.081 376.137C102.508 376.137 101.408 377.347 101.408 379.129C101.408 380.911 102.508 382.121 104.081 382.121C105.654 382.121 106.754 380.911 106.754 379.129ZM102.409 379.129C102.409 377.809 103.069 376.973 104.081 376.973C105.093 376.973 105.753 377.809 105.753 379.129C105.753 380.438 105.093 381.274 104.081 381.274C103.069 381.274 102.409 380.438 102.409 379.129ZM108.233 382H109.223V378.568C109.223 377.611 109.949 377.061 110.664 377.061C111.522 377.061 111.863 377.666 111.863 378.469V382H112.853V378.205C112.853 376.984 112.16 376.137 110.939 376.137C110.125 376.137 109.553 376.555 109.223 377.028V376.247H108.233V382Z" fill="#0A2540"></path>
    <path d="M36.418 431.051C36.418 433.46 37.551 435.121 39.432 435.121C41.302 435.121 42.435 433.46 42.435 431.051C42.435 428.642 41.302 426.981 39.432 426.981C37.551 426.981 36.418 428.642 36.418 431.051ZM37.474 431.051C37.474 429.203 38.145 427.905 39.432 427.905C40.708 427.905 41.39 429.203 41.39 431.051C41.39 432.899 40.708 434.197 39.432 434.197C38.145 434.197 37.474 432.899 37.474 431.051ZM44.8143 431.326C45.0783 430.952 45.5843 430.655 46.2443 430.655C47.2453 430.655 47.9273 431.458 47.9273 432.459C47.9273 433.471 47.1573 434.241 46.1563 434.241C45.1773 434.241 44.4953 433.592 44.3303 432.58L43.3183 432.789C43.5933 434.285 44.6713 435.121 46.1563 435.121C47.7403 435.121 48.9173 433.933 48.9173 432.437C48.9173 430.941 47.9053 429.797 46.3653 429.797C45.6723 429.797 45.1333 430.072 44.7923 430.413L45.0013 428.026H48.4883V427.102H44.1873L43.8463 431.161L44.8143 431.326ZM49.2825 436.078H50.2945L53.4845 426.882H52.4725L49.2825 436.078ZM53.9681 434.131V435H59.4021V434.076H55.4091L57.1911 432.624C58.3241 431.711 59.2481 430.787 59.2481 429.445C59.2481 427.993 58.2361 426.981 56.6411 426.981C55.1891 426.981 54.0341 428.048 54.0341 429.456C54.0341 429.764 54.0891 430.028 54.2101 430.369H55.2001C55.0901 430.094 55.0241 429.797 55.0241 429.511C55.0241 428.609 55.6731 427.883 56.6191 427.883C57.5871 427.883 58.2141 428.543 58.2141 429.511C58.2141 430.545 57.3781 431.304 56.3001 432.195L53.9681 434.131ZM65.9462 428.807C65.6052 427.718 64.8132 426.981 63.4492 426.981C61.6232 426.981 60.2922 428.62 60.2922 431.128C60.2922 433.317 61.2052 435.121 63.2292 435.121C64.7802 435.121 65.9682 433.944 65.9682 432.404C65.9682 430.919 64.8572 429.775 63.3942 429.775C62.3932 429.775 61.6232 430.325 61.2602 431.018V430.908C61.2602 429.06 62.1952 427.861 63.4162 427.861C64.3292 427.861 64.8572 428.411 65.0772 429.17L65.9462 428.807ZM65.0002 432.459C65.0002 433.482 64.2302 434.252 63.2292 434.252C62.2282 434.252 61.4582 433.482 61.4582 432.459C61.4582 431.436 62.2502 430.644 63.2402 430.644C64.2412 430.644 65.0002 431.436 65.0002 432.459Z" fill="#0A2540"></path>
    <path d="M28.4888 417.489H151.511V444.511H36C31.8517 444.511 28.4888 441.148 28.4888 437V417.489Z" stroke="#E7ECF1" stroke-width="0.977623"></path>
    <path d="M161.42 427.058C161.343 427.971 161.035 428.29 160.1 428.356L159.253 428.411V429.192H161.156V435H162.212V427.058H161.42ZM163.645 434.131V435H169.079V434.076H165.086L166.868 432.624C168.001 431.711 168.925 430.787 168.925 429.445C168.925 427.993 167.913 426.981 166.318 426.981C164.866 426.981 163.711 428.048 163.711 429.456C163.711 429.764 163.766 430.028 163.887 430.369H164.877C164.767 430.094 164.701 429.797 164.701 429.511C164.701 428.609 165.35 427.883 166.296 427.883C167.264 427.883 167.891 428.543 167.891 429.511C167.891 430.545 167.055 431.304 165.977 432.195L163.645 434.131ZM172.752 435.121C174.391 435.121 175.458 434.087 175.458 432.789C175.458 431.7 174.776 431.095 173.984 430.875C174.655 430.655 175.205 429.995 175.205 429.137C175.205 427.883 174.314 426.981 172.774 426.981C171.256 426.981 170.233 427.982 170.024 429.302L170.97 429.489C171.146 428.499 171.806 427.872 172.752 427.872C173.654 427.872 174.215 428.378 174.215 429.192C174.215 429.984 173.599 430.446 172.686 430.446H171.828V431.337H172.675C173.676 431.337 174.435 431.799 174.435 432.734C174.435 433.669 173.742 434.241 172.741 434.241C171.751 434.241 170.97 433.603 170.816 432.503L169.793 432.723C170.046 434.296 171.245 435.121 172.752 435.121Z" fill="#0A2540"></path>
    <rect x="245.971" y="425.183" width="19.583" height="13.8233" rx="2.30388" fill="#E6EBF1"></rect>
    <rect x="248.277" y="427.486" width="14.9752" height="2.30388" rx="1.15194" fill="white"></rect>
    <circle cx="262.672" cy="428.063" r="5.18374" fill="#B4C2D0"></circle>
    <path fill-rule="evenodd" clip-rule="evenodd" d="M262.233 429.789C262.984 429.789 263.459 429.336 263.459 428.785C263.459 428.37 263.233 428.127 262.938 428.01C263.187 427.912 263.385 427.641 263.385 427.3C263.385 426.744 262.957 426.333 262.256 426.333C261.533 426.333 261.081 426.805 261.003 427.389L261.708 427.473C261.754 427.188 261.938 426.978 262.224 426.978C262.487 426.978 262.643 427.123 262.643 427.352C262.643 427.604 262.454 427.716 262.164 427.716H261.865V428.337H262.173C262.487 428.337 262.708 428.444 262.708 428.72C262.708 429 262.496 429.145 262.219 429.145C261.934 429.145 261.708 428.958 261.671 428.626L260.92 428.748C261.012 429.43 261.542 429.789 262.233 429.789ZM260.385 429.74V426.373H259.8C259.754 426.751 259.57 426.905 259.132 426.938L258.855 426.961V427.545H259.62V429.74H260.385ZM266.371 428.614C266.371 429.3 265.841 429.791 265.136 429.791C264.454 429.791 263.952 429.426 263.855 428.763L264.602 428.642C264.643 428.955 264.841 429.151 265.132 429.151C265.422 429.151 265.648 428.936 265.648 428.632C265.648 428.334 265.459 428.1 265.159 428.1C264.961 428.1 264.823 428.193 264.745 428.306L264.049 428.221L264.201 426.386H266.164V427.054H264.786L264.731 427.67C264.851 427.572 265.04 427.484 265.275 427.484C265.956 427.484 266.371 427.969 266.371 428.614Z" fill="white"></path>
    <path d="M151.489 417.489H275.511V437C275.511 441.148 272.148 444.511 268 444.511H151.489V417.489Z" stroke="#E7ECF1" stroke-width="0.977623"></path>
    <path d="M39.828 498.11C41.621 498.11 42.941 497.054 42.941 494.876V490.102H41.885V494.843C41.885 496.46 41.027 497.164 39.828 497.164C38.64 497.164 37.782 496.46 37.782 494.843V490.102H36.726V494.876C36.726 497.054 38.046 498.11 39.828 498.11ZM44.6949 498H45.6849V494.568C45.6849 493.611 46.4109 493.061 47.1259 493.061C47.9839 493.061 48.3249 493.666 48.3249 494.469V498H49.3149V494.205C49.3149 492.984 48.6219 492.137 47.4009 492.137C46.5869 492.137 46.0149 492.555 45.6849 493.028V492.247H44.6949V498ZM51.0599 491.246H52.1379V490.102H51.0599V491.246ZM52.0939 492.247H51.1039V498H52.0939V492.247ZM54.1005 496.625C54.1005 497.725 54.6615 498.055 55.6405 498.055C55.9705 498.055 56.2565 498.022 56.5095 497.967V497.12C56.2785 497.175 56.1135 497.186 55.8825 497.186C55.3765 497.186 55.0795 497.076 55.0795 496.471V493.094H56.3885V492.247H55.0795V490.564H54.1005V492.247H53.2095V493.094H54.1005V496.625ZM60.1515 498.121C61.2955 498.121 62.1645 497.494 62.5165 496.471L61.6475 496.163C61.4715 496.845 60.9215 497.263 60.1515 497.263C59.1505 497.263 58.4575 496.493 58.4025 495.283H62.5605V494.953C62.5605 493.358 61.7135 492.137 60.1075 492.137C58.5455 492.137 57.4565 493.413 57.4565 495.129C57.4565 496.9 58.5565 498.121 60.1515 498.121ZM60.0965 492.984C61.0975 492.984 61.5375 493.71 61.5595 494.524H58.4575C58.6335 493.545 59.2605 492.984 60.0965 492.984ZM66.105 498.121C66.908 498.121 67.546 497.736 67.887 497.164V498H68.877V490.102H67.887V493.083C67.546 492.522 66.908 492.137 66.105 492.137C64.51 492.137 63.597 493.49 63.597 495.129C63.597 496.757 64.51 498.121 66.105 498.121ZM67.909 494.931V495.338C67.909 496.658 67.095 497.252 66.281 497.252C65.203 497.252 64.598 496.361 64.598 495.129C64.598 493.886 65.203 493.006 66.281 493.006C67.095 493.006 67.909 493.589 67.909 494.931ZM72.4528 496.372C72.9918 497.439 74.3008 498.121 75.6648 498.121C77.2268 498.121 78.5358 497.186 78.5358 495.712C78.5358 494.04 77.0948 493.765 75.7858 493.457C74.6748 493.193 73.9378 493.017 73.9378 492.181C73.9378 491.422 74.6308 490.894 75.5878 490.894C76.6108 490.894 77.2378 491.411 77.6448 492.17L78.4478 491.532C77.9748 490.641 76.9848 489.981 75.6098 489.981C74.1138 489.981 72.9148 490.883 72.9148 492.269C72.9148 493.754 74.1468 494.095 75.3898 494.392C76.5888 494.678 77.5018 494.843 77.5018 495.8C77.5018 496.702 76.7098 497.208 75.6868 497.208C74.6638 497.208 73.7728 496.658 73.2778 495.712L72.4528 496.372ZM80.1083 496.625C80.1083 497.725 80.6693 498.055 81.6483 498.055C81.9783 498.055 82.2643 498.022 82.5173 497.967V497.12C82.2863 497.175 82.1213 497.186 81.8903 497.186C81.3843 497.186 81.0873 497.076 81.0873 496.471V493.094H82.3963V492.247H81.0873V490.564H80.1083V492.247H79.2173V493.094H80.1083V496.625ZM88.0396 496.746V493.776C88.0396 492.72 87.2476 492.137 85.9716 492.137C84.7396 492.137 83.7826 492.72 83.6946 493.941H84.6626C84.7396 493.325 85.1576 493.006 85.9166 493.006C86.6206 493.006 87.0826 493.281 87.0826 493.919V494.271L85.6526 494.557C84.3656 494.81 83.4636 495.294 83.4636 496.438C83.4636 497.472 84.3216 498.099 85.3666 498.099C86.1146 498.099 86.7526 497.824 87.1046 497.406C87.1156 497.637 87.1266 497.835 87.1486 498H88.1276C88.0726 497.637 88.0396 497.175 88.0396 496.746ZM87.0826 496.042C87.0826 496.779 86.3456 497.296 85.4986 497.296C84.8716 497.296 84.4536 496.955 84.4536 496.394C84.4536 495.701 85.0366 495.459 85.9166 495.283L87.0826 495.041V496.042ZM89.9936 496.625C89.9936 497.725 90.5546 498.055 91.5336 498.055C91.8636 498.055 92.1496 498.022 92.4026 497.967V497.12C92.1716 497.175 92.0066 497.186 91.7756 497.186C91.2696 497.186 90.9726 497.076 90.9726 496.471V493.094H92.2816V492.247H90.9726V490.564H89.9936V492.247H89.1026V493.094H89.9936V496.625ZM96.0447 498.121C97.1887 498.121 98.0577 497.494 98.4097 496.471L97.5407 496.163C97.3647 496.845 96.8147 497.263 96.0447 497.263C95.0437 497.263 94.3507 496.493 94.2957 495.283H98.4537V494.953C98.4537 493.358 97.6067 492.137 96.0007 492.137C94.4387 492.137 93.3497 493.413 93.3497 495.129C93.3497 496.9 94.4497 498.121 96.0447 498.121ZM95.9897 492.984C96.9907 492.984 97.4307 493.71 97.4527 494.524H94.3507C94.5267 493.545 95.1537 492.984 95.9897 492.984ZM99.2481 496.779C99.6881 497.67 100.733 498.121 101.778 498.121C103.01 498.121 104.011 497.395 104.011 496.295C104.011 495.041 102.878 494.843 101.888 494.612C101.085 494.436 100.579 494.337 100.579 493.798C100.579 493.281 101.019 492.951 101.679 492.951C102.405 492.951 102.944 493.314 103.241 493.886L103.945 493.325C103.604 492.643 102.757 492.137 101.723 492.137C100.502 492.137 99.6111 492.852 99.6111 493.875C99.6111 495.052 100.601 495.261 101.547 495.47C102.493 495.668 103.043 495.756 103.043 496.383C103.043 497.01 102.449 497.296 101.778 497.296C101.03 497.296 100.326 496.889 100.018 496.218L99.2481 496.779Z" fill="#0A2540"></path>
    <path d="M256.885 491.902L260.917 495.934L264.948 491.902" stroke="#727F96" stroke-width="1.38233"></path>
    <path d="M36 480.489H268C272.148 480.489 275.511 483.852 275.511 488V507.511H28.4888V488C28.4888 483.852 31.8517 480.489 36 480.489Z" stroke="#E7ECF1" stroke-width="0.977623"></path>
    <path d="M29.463 468.051C29.463 466.181 30.497 464.916 31.96 464.916C32.983 464.916 33.72 465.51 34.006 466.511L35.007 466.181C34.545 464.817 33.467 463.981 31.96 463.981C29.914 463.981 28.407 465.642 28.407 468.051C28.407 470.46 29.914 472.121 31.96 472.121C33.467 472.121 34.545 471.285 35.007 469.921L34.006 469.591C33.72 470.592 32.983 471.186 31.96 471.186C30.497 471.186 29.463 469.921 29.463 468.051ZM41.246 469.129C41.246 467.347 40.146 466.137 38.573 466.137C37 466.137 35.9 467.347 35.9 469.129C35.9 470.911 37 472.121 38.573 472.121C40.146 472.121 41.246 470.911 41.246 469.129ZM36.901 469.129C36.901 467.809 37.561 466.973 38.573 466.973C39.585 466.973 40.245 467.809 40.245 469.129C40.245 470.438 39.585 471.274 38.573 471.274C37.561 471.274 36.901 470.438 36.901 469.129ZM47.29 466.247H46.3V469.712C46.3 470.669 45.574 471.208 44.859 471.208C44.012 471.208 43.66 470.658 43.66 469.844V466.247H42.67V470.053C42.67 471.274 43.363 472.121 44.595 472.121C45.409 472.121 45.97 471.692 46.3 471.208V472H47.29V466.247ZM49.1539 472H50.1439V468.568C50.1439 467.611 50.8699 467.061 51.5849 467.061C52.4429 467.061 52.7839 467.666 52.7839 468.469V472H53.7739V468.205C53.7739 466.984 53.0809 466.137 51.8599 466.137C51.0459 466.137 50.4739 466.555 50.1439 467.028V466.247H49.1539V472ZM55.7369 470.625C55.7369 471.725 56.2979 472.055 57.2769 472.055C57.6069 472.055 57.8929 472.022 58.1459 471.967V471.12C57.9149 471.175 57.7499 471.186 57.5189 471.186C57.0129 471.186 56.7159 471.076 56.7159 470.471V467.094H58.0249V466.247H56.7159V464.564H55.7369V466.247H54.8459V467.094H55.7369V470.625ZM62.5222 466.225C62.4232 466.214 62.2802 466.203 62.1262 466.203C61.3452 466.203 60.7842 466.643 60.5312 467.226V466.247H59.5412V472H60.5312V468.854C60.5312 467.842 61.2022 467.182 62.0382 467.182C62.2252 467.182 62.3572 467.193 62.5222 467.226V466.225ZM66.031 472.627L68.506 466.247H67.472L65.877 470.647L64.26 466.247H63.215L65.349 471.791L65.074 472.473C64.843 473.045 64.612 473.199 64.183 473.199C64.018 473.199 63.897 473.188 63.71 473.144V474.002C63.886 474.035 64.007 474.046 64.249 474.046C65.25 474.046 65.701 473.496 66.031 472.627ZM77.1825 469.129C77.1825 467.347 76.0825 466.137 74.5095 466.137C72.9365 466.137 71.8365 467.347 71.8365 469.129C71.8365 470.911 72.9365 472.121 74.5095 472.121C76.0825 472.121 77.1825 470.911 77.1825 469.129ZM72.8375 469.129C72.8375 467.809 73.4975 466.973 74.5095 466.973C75.5215 466.973 76.1815 467.809 76.1815 469.129C76.1815 470.438 75.5215 471.274 74.5095 471.274C73.4975 471.274 72.8375 470.438 72.8375 469.129ZM81.6424 466.225C81.5434 466.214 81.4004 466.203 81.2464 466.203C80.4654 466.203 79.9044 466.643 79.6514 467.226V466.247H78.6614V472H79.6514V468.854C79.6514 467.842 80.3224 467.182 81.1584 467.182C81.3454 467.182 81.4774 467.193 81.6424 467.226V466.225ZM88.474 466.225C88.375 466.214 88.232 466.203 88.078 466.203C87.297 466.203 86.736 466.643 86.483 467.226V466.247H85.493V472H86.483V468.854C86.483 467.842 87.154 467.182 87.99 467.182C88.177 467.182 88.309 467.193 88.474 467.226V466.225ZM91.847 472.121C92.991 472.121 93.86 471.494 94.212 470.471L93.343 470.163C93.167 470.845 92.617 471.263 91.847 471.263C90.846 471.263 90.153 470.493 90.098 469.283H94.256V468.953C94.256 467.358 93.409 466.137 91.803 466.137C90.241 466.137 89.152 467.413 89.152 469.129C89.152 470.9 90.252 472.121 91.847 472.121ZM91.792 466.984C92.793 466.984 93.233 467.71 93.255 468.524H90.153C90.329 467.545 90.956 466.984 91.792 466.984ZM100.581 471.483V466.247H99.5914V467.094C99.2834 466.533 98.6234 466.137 97.8314 466.137C96.2584 466.137 95.3344 467.435 95.3344 468.997C95.3344 470.57 96.2584 471.868 97.8314 471.868C98.6344 471.868 99.2834 471.472 99.5914 470.911V471.56C99.5914 472.759 98.9204 473.276 97.9084 473.276C97.1054 473.276 96.5114 472.847 96.3244 472.11L95.4004 472.462C95.7194 473.518 96.6434 474.101 97.9084 474.101C99.4704 474.101 100.581 473.166 100.581 471.483ZM99.6024 468.909V469.118C99.6024 470.383 98.8324 470.999 98.0074 470.999C96.9624 470.999 96.3244 470.207 96.3244 468.997C96.3244 467.787 96.9624 467.006 98.0074 467.006C98.8324 467.006 99.6024 467.622 99.6024 468.909ZM102.405 465.246H103.483V464.102H102.405V465.246ZM103.439 466.247H102.449V472H103.439V466.247ZM110.262 469.129C110.262 467.347 109.162 466.137 107.589 466.137C106.016 466.137 104.916 467.347 104.916 469.129C104.916 470.911 106.016 472.121 107.589 472.121C109.162 472.121 110.262 470.911 110.262 469.129ZM105.917 469.129C105.917 467.809 106.577 466.973 107.589 466.973C108.601 466.973 109.261 467.809 109.261 469.129C109.261 470.438 108.601 471.274 107.589 471.274C106.577 471.274 105.917 470.438 105.917 469.129ZM111.741 472H112.731V468.568C112.731 467.611 113.457 467.061 114.172 467.061C115.03 467.061 115.371 467.666 115.371 468.469V472H116.361V468.205C116.361 466.984 115.668 466.137 114.447 466.137C113.633 466.137 113.061 466.555 112.731 467.028V466.247H111.741V472Z" fill="#0A2540"></path>
    <path d="M36.407 523.295C36.748 524.384 37.54 525.121 38.904 525.121C40.73 525.121 42.061 523.482 42.061 520.974C42.061 518.785 41.148 516.981 39.124 516.981C37.573 516.981 36.385 518.158 36.385 519.698C36.385 521.183 37.496 522.327 38.959 522.327C39.96 522.327 40.73 521.777 41.093 521.084V521.194C41.093 523.042 40.158 524.241 38.937 524.241C38.024 524.241 37.496 523.691 37.276 522.932L36.407 523.295ZM37.353 519.643C37.353 518.62 38.123 517.85 39.124 517.85C40.125 517.85 40.895 518.62 40.895 519.643C40.895 520.666 40.103 521.458 39.113 521.458C38.112 521.458 37.353 520.666 37.353 519.643ZM47.3085 518.015C45.7135 519.786 44.8665 521.931 44.8665 525H45.9335C45.9335 522.151 46.4945 520.16 48.4305 518.015V517.102H42.7875V519.368H43.7115V518.015H47.3085ZM53.5134 518.015C51.9184 519.786 51.0714 521.931 51.0714 525H52.1384C52.1384 522.151 52.6994 520.16 54.6354 518.015V517.102H48.9924V519.368H49.9164V518.015H53.5134ZM57.3677 517.058C57.2907 517.971 56.9827 518.29 56.0477 518.356L55.2007 518.411V519.192H57.1037V525H58.1597V517.058H57.3677ZM59.5929 524.131V525H65.0269V524.076H61.0339L62.8159 522.624C63.9489 521.711 64.8729 520.787 64.8729 519.445C64.8729 517.993 63.8609 516.981 62.2659 516.981C60.8139 516.981 59.6589 518.048 59.6589 519.456C59.6589 519.764 59.7139 520.028 59.8349 520.369H60.8249C60.7149 520.094 60.6489 519.797 60.6489 519.511C60.6489 518.609 61.2979 517.883 62.2439 517.883C63.2119 517.883 63.8389 518.543 63.8389 519.511C63.8389 520.545 63.0029 521.304 61.9249 522.195L59.5929 524.131Z" fill="#0A2540"></path>
    <path d="M28.4888 507.489H275.511V527C275.511 531.148 272.148 534.511 268 534.511H36C31.8517 534.511 28.4888 531.148 28.4888 527V507.489Z" stroke="#E7ECF1" stroke-width="0.977623"></path>
    <path d="M100.704 284.692C100.704 287.32 102.36 289.132 104.616 289.132C106.872 289.132 108.516 287.32 108.516 284.692C108.516 282.064 106.872 280.252 104.616 280.252C102.36 280.252 100.704 282.064 100.704 284.692ZM107.376 284.692C107.376 286.732 106.236 288.112 104.616 288.112C102.996 288.112 101.856 286.732 101.856 284.692C101.856 282.652 102.996 281.272 104.616 281.272C106.236 281.272 107.376 282.652 107.376 284.692ZM113.119 282.7C113.011 282.688 112.855 282.676 112.687 282.676C111.835 282.676 111.223 283.156 110.947 283.792V282.724H109.867V289H110.947V285.568C110.947 284.464 111.679 283.744 112.591 283.744C112.795 283.744 112.939 283.756 113.119 283.792V282.7ZM119.863 289.132C121.603 289.132 122.599 287.644 122.599 285.868C122.599 284.08 121.603 282.604 119.863 282.604C118.987 282.604 118.291 283.024 117.919 283.636V282.724H116.839V291.16H117.919V288.088C118.291 288.712 118.987 289.132 119.863 289.132ZM117.895 285.652C117.895 284.188 118.783 283.552 119.671 283.552C120.847 283.552 121.507 284.512 121.507 285.868C121.507 287.212 120.847 288.184 119.671 288.184C118.783 288.184 117.895 287.536 117.895 286.096V285.652ZM128.488 287.632V284.392C128.488 283.24 127.624 282.604 126.232 282.604C124.888 282.604 123.844 283.24 123.748 284.572H124.804C124.888 283.9 125.344 283.552 126.172 283.552C126.94 283.552 127.444 283.852 127.444 284.548V284.932L125.884 285.244C124.48 285.52 123.496 286.048 123.496 287.296C123.496 288.424 124.432 289.108 125.572 289.108C126.388 289.108 127.084 288.808 127.468 288.352C127.48 288.604 127.492 288.82 127.516 289H128.584C128.524 288.604 128.488 288.1 128.488 287.632ZM127.444 286.864C127.444 287.668 126.64 288.232 125.716 288.232C125.032 288.232 124.576 287.86 124.576 287.248C124.576 286.492 125.212 286.228 126.172 286.036L127.444 285.772V286.864ZM132.468 289.684L135.168 282.724H134.04L132.3 287.524L130.536 282.724H129.396L131.724 288.772L131.424 289.516C131.172 290.14 130.92 290.308 130.452 290.308C130.272 290.308 130.14 290.296 129.936 290.248V291.184C130.128 291.22 130.26 291.232 130.524 291.232C131.616 291.232 132.108 290.632 132.468 289.684ZM143.278 287.632V284.392C143.278 283.24 142.414 282.604 141.022 282.604C139.678 282.604 138.634 283.24 138.538 284.572H139.594C139.678 283.9 140.134 283.552 140.962 283.552C141.73 283.552 142.234 283.852 142.234 284.548V284.932L140.674 285.244C139.27 285.52 138.286 286.048 138.286 287.296C138.286 288.424 139.222 289.108 140.362 289.108C141.178 289.108 141.874 288.808 142.258 288.352C142.27 288.604 142.282 288.82 142.306 289H143.374C143.314 288.604 143.278 288.1 143.278 287.632ZM142.234 286.864C142.234 287.668 141.43 288.232 140.506 288.232C139.822 288.232 139.366 287.86 139.366 287.248C139.366 286.492 140.002 286.228 140.962 286.036L142.234 285.772V286.864ZM145.023 289H146.103V285.256C146.103 284.212 146.895 283.612 147.675 283.612C148.611 283.612 148.983 284.272 148.983 285.148V289H150.063V284.86C150.063 283.528 149.307 282.604 147.975 282.604C147.087 282.604 146.463 283.06 146.103 283.576V282.724H145.023V289ZM157.196 285.868C157.196 283.924 155.996 282.604 154.28 282.604C152.564 282.604 151.364 283.924 151.364 285.868C151.364 287.812 152.564 289.132 154.28 289.132C155.996 289.132 157.196 287.812 157.196 285.868ZM152.456 285.868C152.456 284.428 153.176 283.516 154.28 283.516C155.384 283.516 156.104 284.428 156.104 285.868C156.104 287.296 155.384 288.208 154.28 288.208C153.176 288.208 152.456 287.296 152.456 285.868ZM158.738 287.5C158.738 288.7 159.35 289.06 160.418 289.06C160.778 289.06 161.09 289.024 161.366 288.964V288.04C161.114 288.1 160.934 288.112 160.682 288.112C160.13 288.112 159.806 287.992 159.806 287.332V283.648H161.234V282.724H159.806V280.888H158.738V282.724H157.766V283.648H158.738V287.5ZM162.648 289H163.728V285.256C163.728 284.212 164.52 283.612 165.3 283.612C166.236 283.612 166.608 284.272 166.608 285.148V289H167.688V284.86C167.688 283.528 166.932 282.604 165.6 282.604C164.712 282.604 164.088 283.06 163.728 283.576V280.384H162.648V289ZM171.929 289.132C173.177 289.132 174.125 288.448 174.509 287.332L173.561 286.996C173.369 287.74 172.769 288.196 171.929 288.196C170.837 288.196 170.081 287.356 170.021 286.036H174.557V285.676C174.557 283.936 173.633 282.604 171.881 282.604C170.177 282.604 168.989 283.996 168.989 285.868C168.989 287.8 170.189 289.132 171.929 289.132ZM171.869 283.528C172.961 283.528 173.441 284.32 173.465 285.208H170.081C170.273 284.14 170.957 283.528 171.869 283.528ZM179.154 282.7C179.046 282.688 178.89 282.676 178.722 282.676C177.87 282.676 177.258 283.156 176.982 283.792V282.724H175.902V289H176.982V285.568C176.982 284.464 177.714 283.744 178.626 283.744C178.83 283.744 178.974 283.756 179.154 283.792V282.7ZM185.863 282.724L184.567 287.392L183.247 282.724H182.131L184.039 289H184.987L186.295 284.344L187.603 289H188.551L190.459 282.724H189.379L188.071 287.404L186.775 282.724H185.863ZM195.906 287.632V284.392C195.906 283.24 195.042 282.604 193.65 282.604C192.306 282.604 191.262 283.24 191.166 284.572H192.222C192.306 283.9 192.762 283.552 193.59 283.552C194.358 283.552 194.862 283.852 194.862 284.548V284.932L193.302 285.244C191.898 285.52 190.914 286.048 190.914 287.296C190.914 288.424 191.85 289.108 192.99 289.108C193.806 289.108 194.502 288.808 194.886 288.352C194.898 288.604 194.91 288.82 194.934 289H196.002C195.942 288.604 195.906 288.1 195.906 287.632ZM194.862 286.864C194.862 287.668 194.058 288.232 193.134 288.232C192.45 288.232 191.994 287.86 191.994 287.248C191.994 286.492 192.63 286.228 193.59 286.036L194.862 285.772V286.864ZM199.886 289.684L202.586 282.724H201.458L199.718 287.524L197.954 282.724H196.814L199.142 288.772L198.842 289.516C198.59 290.14 198.338 290.308 197.87 290.308C197.69 290.308 197.558 290.296 197.354 290.248V291.184C197.546 291.22 197.678 291.232 197.942 291.232C199.034 291.232 199.526 290.632 199.886 289.684Z" fill="#727F96"></path>
    <line opacity="0.2" x1="28" y1="284.339" x2="92" y2="284.339" stroke="#0A2540" stroke-width="1.32191"></line>
    <line opacity="0.2" x1="211" y1="284.339" x2="275" y2="284.339" stroke="#0A2540" stroke-width="1.32191"></line>
  </svg>