<svg width="100%" height="auto" viewBox="0 0 303 617" fill="none" xmlns="http://www.w3.org/2000/svg" class="">
    <path d="M54.8416 1L248.158 1C266.88 1 273.669 2.94934 280.514 6.60979C287.358 10.2702 292.73 15.6418 296.39 22.4862C300.051 29.3307 302 36.1197 302 54.8416V562.158C302 580.88 300.051 587.669 296.39 594.514C292.73 601.358 287.358 606.73 280.514 610.39C273.669 614.051 266.88 616 248.158 616H54.8416C36.1197 616 29.3307 614.051 22.4862 610.39C15.6418 606.73 10.2702 601.358 6.60979 594.514C2.94934 587.669 1 580.88 1 562.158L1 54.8416C1 36.1197 2.94934 29.3307 6.60979 22.4862C10.2702 15.6418 15.6418 10.2702 22.4862 6.60979C29.3307 2.94934 36.1197 1 54.8416 1Z" fill="#F6F9FC"></path>
    <g filter="url(#Sticky-filter0_d_3905_239269)">
    <path d="M52.586 9H250.414C265.57 9 271.066 10.578 276.606 13.5413C282.147 16.5045 286.496 20.8529 289.459 26.3936C292.422 31.9344 294 37.4302 294 52.586V564.414C294 579.57 292.422 585.066 289.459 590.606C286.496 596.147 282.147 600.496 276.606 603.459C271.066 606.422 265.57 608 250.414 608H52.586C37.4302 608 31.9344 606.422 26.3936 603.459C20.8529 600.496 16.5045 596.147 13.5413 590.606C10.578 585.066 9 579.57 9 564.414V52.586C9 37.4302 10.578 31.9344 13.5413 26.3936C16.5045 20.8529 20.8529 16.5045 26.3936 13.5413C31.9344 10.578 37.4302 9 52.586 9Z" fill="white"></path>
    </g>
    <path opacity="0.49" d="M52.586 9H250.414C265.57 9 271.066 10.578 276.606 13.5413C282.147 16.5045 286.496 20.8529 289.459 26.3936C292.422 31.9344 294 37.4302 294 52.586V564.414C294 579.57 292.422 585.066 289.459 590.606C286.496 596.147 282.147 600.496 276.606 603.459C271.066 606.422 265.57 608 250.414 608H52.586C37.4302 608 31.9344 606.422 26.3936 603.459C20.8529 600.496 16.5045 596.147 13.5413 590.606C10.578 585.066 9 579.57 9 564.414V52.586C9 37.4302 10.578 31.9344 13.5413 26.3936C16.5045 20.8529 20.8529 16.5045 26.3936 13.5413C31.9344 10.578 37.4302 9 52.586 9Z" fill="white"></path>
    <rect x="28" y="551" width="247.999" height="32" rx="6" fill="#0A2540"></rect>

    <g transform="translate(27, 229)">
    <rect width="248" height="32" rx="6" fill="#00D66F"></rect>
    <path d="M149.704 11.3788C149.704 10.7525 150.232 10.2434 150.853 10.2434C151.474 10.2434 152.001 10.7551 152.001 11.3788C152.001 12.0024 151.492 12.5274 150.853 12.5274C150.213 12.5274 149.704 12.0184 149.704 11.3788Z" fill="#011E0F"></path>
    <path d="M146.296 10.4033H148.294V21.5967H146.296V10.4033Z" fill="#011E0F"></path>
    <path d="M151.863 13.6014H149.848V21.5967H151.863V13.6014Z" fill="#011E0F"></path>
    <path d="M166.348 17.3272C167.864 16.3944 168.895 15.0059 169.303 13.5988H167.288C166.763 14.942 165.559 15.952 164.234 16.3811V10.4007H162.219V21.594H164.234V18.2653C165.772 18.6491 166.987 19.979 167.403 21.594H169.431C169.122 19.899 167.963 18.3133 166.348 17.3272Z" fill="#011E0F"></path>
    <path d="M155.434 14.4969C155.962 13.796 156.99 13.3882 157.825 13.3882C159.381 13.3882 160.668 14.5262 160.671 16.2452V21.594H158.656V16.6903C158.656 15.984 158.342 15.1685 157.321 15.1685C156.122 15.1685 155.431 16.2319 155.431 17.4765V21.5993H153.417V13.6068H155.434V14.4969Z" fill="#011E0F"></path>
    <path d="M136.312 22.6627C139.992 22.6627 142.975 19.6797 142.975 16C142.975 12.3203 139.992 9.33731 136.312 9.33731C132.632 9.33731 129.65 12.3203 129.65 16C129.65 19.6797 132.632 22.6627 136.312 22.6627Z" fill="#011E0F"></path>
    <path d="M136.006 12.0024H133.951C134.351 13.6734 135.518 15.1019 136.978 16C135.515 16.8982 134.351 18.3266 133.951 19.9976H136.006C136.515 18.4519 137.924 17.1087 139.657 16.8342V15.1632C137.922 14.8914 136.512 13.5482 136.006 12.0024Z" fill="white"></path>
    <path d="M119.749 20.4418V11.6739H121.19V15.0862H121.288C121.589 14.4095 122.196 13.9989 123.11 13.9989C124.521 13.9989 125.29 14.8491 125.29 16.3528V20.4418H123.85V16.6882C123.85 15.705 123.451 15.2076 122.578 15.2076C121.722 15.2076 121.19 15.8091 121.19 16.7576V20.4418H119.749Z" fill="#011E0F"></path>
    <path d="M117.735 20.4707C116.283 20.4707 115.687 19.9849 115.687 18.7645V15.2366H114.704V14.1203H115.687V12.5703H117.151V14.1203H118.487V15.2366H117.151V18.4233C117.151 19.0537 117.399 19.3198 118.001 19.3198C118.203 19.3198 118.313 19.314 118.487 19.2966V20.4071C118.279 20.4476 118.012 20.4707 117.735 20.4707Z" fill="#011E0F"></path>
    <path d="M112.99 13.0619C112.516 13.0619 112.129 12.686 112.129 12.2117C112.129 11.7433 112.516 11.3616 112.99 11.3616C113.459 11.3616 113.846 11.7433 113.846 12.2117C113.846 12.686 113.459 13.0619 112.99 13.0619ZM112.268 20.4418V14.1203H113.708V20.4418H112.268Z" fill="#011E0F"></path>
    <path d="M103.955 20.4418L102.243 14.1203H103.689L104.741 18.8687H104.84L106.054 14.1203H107.425L108.651 18.8687H108.749L109.796 14.1203H111.225L109.513 20.4418H108.003L106.771 15.8612H106.673L105.447 20.4418H103.955Z" fill="#011E0F"></path>
    <path d="M93.8818 22.6627C93.7083 22.6627 93.5058 22.6569 93.3323 22.6395V21.5349C93.448 21.5465 93.6099 21.5522 93.7603 21.5522C94.3502 21.5522 94.703 21.3093 94.8592 20.7367L94.9344 20.4476L92.673 14.1203H94.2461L95.7209 19.0595H95.8308L97.2999 14.1203H98.8152L96.548 20.5748C96.0043 22.1595 95.2814 22.6627 93.8818 22.6627Z" fill="#011E0F"></path>
    <path d="M88.5301 20.5459C87.3271 20.5459 86.4538 19.8056 86.4538 18.6547V18.6431C86.4538 17.5153 87.3155 16.856 88.854 16.7634L90.4792 16.6651V16.1214C90.4792 15.491 90.0685 15.144 89.2935 15.144C88.6342 15.144 88.2062 15.3811 88.0616 15.7976L88.0558 15.8207H86.6967L86.7025 15.7686C86.8413 14.7045 87.8592 13.9989 89.3629 13.9989C90.9881 13.9989 91.9019 14.7854 91.9019 16.1214V20.4418H90.4792V19.5742H90.3808C90.0338 20.1873 89.3629 20.5459 88.5301 20.5459ZM87.8765 18.5853C87.8765 19.1231 88.3335 19.4412 88.9696 19.4412C89.8372 19.4412 90.4792 18.8744 90.4792 18.1226V17.6136L89.0564 17.7061C88.2525 17.7582 87.8765 18.0532 87.8765 18.5737V18.5853Z" fill="#011E0F"></path>
    <path d="M79.5984 20.4418V12.0961H82.9297C84.6243 12.0961 85.7695 13.2123 85.7695 14.8838V14.8953C85.7695 16.561 84.6243 17.683 82.9297 17.683H81.0906V20.4418H79.5984ZM82.5654 13.3164H81.0906V16.48H82.5654C83.6353 16.48 84.26 15.9017 84.26 14.9011V14.8895C84.26 13.889 83.6353 13.3164 82.5654 13.3164Z" fill="#011E0F"></path>
    </g>

    <rect x="27" y="189" width="249" height="32" rx="6" fill="black"></rect>
    <path fill-rule="evenodd" clip-rule="evenodd" d="M141.094 199.772C141.473 199.295 141.731 198.655 141.663 198C141.107 198.028 140.43 198.368 140.037 198.846C139.685 199.255 139.373 199.922 139.454 200.549C140.078 200.603 140.701 200.236 141.094 199.772ZM141.652 200.67C141.101 200.637 140.601 200.835 140.196 200.996C139.935 201.099 139.714 201.187 139.544 201.187C139.358 201.187 139.128 201.095 138.87 200.993L138.87 200.993C138.53 200.858 138.141 200.703 137.734 200.711C136.802 200.724 135.937 201.254 135.464 202.097C134.491 203.782 135.207 206.282 136.153 207.655C136.613 208.334 137.166 209.082 137.896 209.055C138.215 209.043 138.445 208.945 138.682 208.845C138.957 208.728 139.244 208.607 139.693 208.607C140.122 208.607 140.395 208.724 140.657 208.837C140.907 208.945 141.147 209.048 141.503 209.042C142.26 209.028 142.733 208.362 143.192 207.682C143.692 206.948 143.912 206.238 143.945 206.132L143.949 206.12C143.948 206.119 143.941 206.116 143.93 206.111C143.761 206.032 142.489 205.445 142.476 203.877C142.463 202.561 143.478 201.894 143.644 201.785L143.644 201.785L143.644 201.785C143.655 201.778 143.662 201.773 143.665 201.77C143.017 200.806 142.003 200.697 141.652 200.67ZM150.683 198.779C152.651 198.779 154.021 200.143 154.021 202.128C154.021 204.12 152.623 205.491 150.634 205.491H148.455V208.974H146.881V198.779H150.683ZM148.451 204.163H150.257C151.628 204.163 152.408 203.421 152.408 202.135C152.408 200.849 151.628 200.114 150.264 200.114H148.451V204.163ZM157.222 204.692C155.395 204.805 154.404 205.554 154.404 206.861C154.404 208.175 155.423 209.051 156.885 209.051C157.876 209.051 158.79 208.55 159.204 207.751H159.239V208.973H160.694V203.901C160.694 202.431 159.52 201.485 157.721 201.485C156.049 201.485 154.812 202.445 154.77 203.767H156.189C156.309 203.138 156.885 202.728 157.679 202.728C158.642 202.728 159.183 203.18 159.183 204.007V204.572L157.222 204.692ZM159.182 205.631V206.203C159.182 207.157 158.374 207.842 157.306 207.842C156.47 207.842 155.936 207.439 155.936 206.818C155.936 206.175 156.448 205.807 157.432 205.744L159.182 205.631ZM162.032 210.477V211.699C162.137 211.727 162.524 211.742 162.643 211.742C164.175 211.742 164.899 211.155 165.532 209.368L168.293 201.575H166.691L164.836 207.594H164.801L162.945 201.575H161.301L163.964 208.993L163.824 209.445C163.585 210.209 163.191 210.505 162.495 210.505C162.369 210.505 162.13 210.491 162.032 210.477Z" fill="white"></path>
    <defs>
    <filter id="Sticky-filter0_d_3905_239269" x="7" y="7" width="289" height="603" filterUnits="userSpaceOnUse" color-interpolation-filters="sRGB">
    <feFlood flood-opacity="0" result="BackgroundImageFix"></feFlood>
    <feColorMatrix in="SourceAlpha" type="matrix" values="0 0 0 0 0 0 0 0 0 0 0 0 0 0 0 0 0 0 127 0" result="hardAlpha"></feColorMatrix>
    <feOffset></feOffset>
    <feGaussianBlur stdDeviation="1"></feGaussianBlur>
    <feColorMatrix type="matrix" values="0 0 0 0 0.0392157 0 0 0 0 0.145098 0 0 0 0 0.25098 0 0 0 0.1 0"></feColorMatrix>
    <feBlend mode="normal" in2="BackgroundImageFix" result="Sticky-effect1_dropShadow_3905_239269"></feBlend>
    <feBlend mode="normal" in="SourceGraphic" in2="Sticky-effect1_dropShadow_3905_239269" result="shape"></feBlend>
    </filter>
    </defs>
  </svg>